<svg width="20" height="20" viewBox="0 0 20 20" fill="none" xmlns="http://www.w3.org/2000/svg">
<path d="M10 10C10.9448 10 11.851 9.62467 12.5191 8.95657C13.1872 8.28847 13.5625 7.38233 13.5625 6.4375C13.5625 5.49267 13.1872 4.58653 12.5191 3.91843C11.851 3.25033 10.9448 2.875 10 2.875C9.05517 2.875 8.14903 3.25033 7.48093 3.91843C6.81283 4.58653 6.4375 5.49267 6.4375 6.4375C6.4375 7.38233 6.81283 8.28847 7.48093 8.95657C8.14903 9.62467 9.05517 10 10 10ZM12.375 6.4375C12.375 7.06739 12.1248 7.67148 11.6794 8.11688C11.234 8.56228 10.6299 8.8125 10 8.8125C9.37011 8.8125 8.76602 8.56228 8.32062 8.11688C7.87522 7.67148 7.625 7.06739 7.625 6.4375C7.625 5.80761 7.87522 5.20352 8.32062 4.75812C8.76602 4.31272 9.37011 4.0625 10 4.0625C10.6299 4.0625 11.234 4.31272 11.6794 4.75812C12.1248 5.20352 12.375 5.80761 12.375 6.4375ZM17.125 15.9375C17.125 17.125 15.9375 17.125 15.9375 17.125H4.0625C4.0625 17.125 2.875 17.125 2.875 15.9375C2.875 14.75 4.0625 11.1875 10 11.1875C15.9375 11.1875 17.125 14.75 17.125 15.9375ZM15.9375 15.9328C15.9363 15.6406 15.7546 14.7619 14.9495 13.9567C14.1753 13.1825 12.7182 12.375 10 12.375C7.28062 12.375 5.82475 13.1825 5.0505 13.9567C4.24538 14.7619 4.06488 15.6406 4.0625 15.9328H15.9375Z" fill="#A22531"/>
</svg>
