<svg width="123" height="41" viewBox="0 0 123 41" fill="none" xmlns="http://www.w3.org/2000/svg">
<path d="M118.948 24.928L122.336 27.1865C121.236 28.8061 118.606 31.5849 114.059 31.5849C108.413 31.5849 104.208 27.2164 104.208 21.659C104.208 15.7453 108.458 11.7334 113.584 11.7334C118.74 11.7334 121.266 15.8343 122.083 18.0483L122.529 19.1777L109.245 24.6754C110.255 26.6666 111.831 27.6769 114.059 27.6769C116.288 27.6769 117.833 26.5774 118.948 24.928ZM108.532 21.3473L117.403 17.6621C116.912 16.4289 115.456 15.5524 113.717 15.5524C111.504 15.5524 108.428 17.5137 108.532 21.3473Z" fill="#FF302F"/>
<path d="M97.8037 1.6145H102.083V30.6784H97.8037V1.61426V1.6145Z" fill="#20B15A"/>
<path d="M91.0577 12.5061H95.1885V30.1584C95.1885 37.4837 90.8645 40.5 85.753 40.5C80.9389 40.5 78.0416 37.2609 76.9568 34.631L80.7457 33.0558C81.4291 34.6753 83.0785 36.5923 85.753 36.5923C89.0367 36.5923 91.0577 34.5565 91.0577 30.7528V29.3265H90.9091C89.9283 30.515 88.0562 31.5848 85.6788 31.5848C80.7159 31.5848 76.1689 27.2609 76.1689 21.689C76.1689 16.087 80.7159 11.7188 85.6788 11.7188C88.0414 11.7188 89.9283 12.7737 90.9091 13.9327H91.0577V12.5064V12.5061ZM91.3547 21.689C91.3547 18.1822 89.022 15.6265 86.0502 15.6265C83.0486 15.6265 80.5227 18.1822 80.5227 21.689C80.5227 25.1509 83.0486 27.6621 86.0502 27.6621C89.0222 27.6771 91.3549 25.1509 91.3549 21.689H91.3547Z" fill="#3686F7"/>
<path d="M52.6774 21.6142C52.6774 27.335 48.2199 31.5399 42.7518 31.5399C37.2839 31.5399 32.8262 27.3202 32.8262 21.6142C32.8262 15.8639 37.2839 11.6738 42.7518 11.6738C48.2199 11.6738 52.6774 15.8639 52.6774 21.6142ZM48.3387 21.6142C48.3387 18.0483 45.7531 15.5963 42.7518 15.5963C39.7505 15.5963 37.1649 18.0483 37.1649 21.6142C37.1649 25.1506 39.7505 27.6322 42.7518 27.6322C45.7534 27.6322 48.3387 25.1506 48.3387 21.6142Z" fill="#FF302F"/>
<path d="M74.3571 21.659C74.3571 27.3797 69.8994 31.5847 64.4315 31.5847C58.9634 31.5847 54.5059 27.3795 54.5059 21.659C54.5059 15.9087 58.9634 11.7334 64.4315 11.7334C69.8994 11.7334 74.3571 15.8939 74.3571 21.659ZM70.0034 21.659C70.0034 18.0931 67.418 15.6411 64.4165 15.6411C61.4151 15.6411 58.8296 18.0931 58.8296 21.659C58.8296 25.1954 61.4151 27.6769 64.4165 27.6769C67.4328 27.6769 70.0034 25.1806 70.0034 21.659Z" fill="#FFBA40"/>
<path d="M16.5114 27.2312C10.2855 27.2312 5.41201 22.2089 5.41201 15.983C5.41201 9.75729 10.2855 4.73496 16.5114 4.73496C19.8696 4.73496 22.3211 6.05733 24.1339 7.75132L27.1206 4.76478C24.5947 2.34282 21.2217 0.5 16.5114 0.5C7.98256 0.500239 0.805664 7.45436 0.805664 15.983C0.805664 24.512 7.98256 31.4659 16.5114 31.4659C21.1177 31.4659 24.5947 29.9503 27.3138 27.1272C30.1072 24.3336 30.969 20.4109 30.969 17.2311C30.969 16.2356 30.8502 15.2104 30.7164 14.4526H16.5114V18.5833H26.6302C26.333 21.1689 25.5159 22.9371 24.3123 24.1404C22.8561 25.6116 20.5532 27.2312 16.5114 27.2312Z" fill="#3686F7"/>
</svg>
