<svg width="100" height="100" viewBox="0 0 100 100" fill="none" xmlns="http://www.w3.org/2000/svg">
<circle cx="50" cy="50" r="50" fill="#092A59"/>
<path d="M50.6079 28.0002V28.0239C48.8886 31.691 46.3304 34.8922 43.2341 37.7945L46.8144 37.4207L41.9409 43.5934L44.2958 42.8429L41.1043 48.0515L42.6733 48.9858L36.4799 57.7331L39.9059 57.751L35 65.6855L41.0332 64.9142L42.1722 67.9605L48.4783 65.5608L47.4016 73H52.4264L51.8064 66.525L55.4311 68.0822L56.398 65.7299L60.6013 67.7203L65.9552 65.7507L62.4372 59.6671L61.2567 59.4505L61.9002 61.0821L62.6447 62.9715L60.7523 62.233L55.9204 60.3434V63.7368L54.5767 62.921L47.9918 58.9345L45.942 60.9515L44.2307 62.6363L44.4352 60.2425L44.6369 57.9023L46.3633 58.0503L47.2382 57.1873L47.7309 56.7038L48.3211 57.0598L54.1466 60.5865V57.7479L55.3569 58.2197L59.5065 59.842L59.0231 58.617L58.4387 57.131L60.008 57.4186L64.3237 58.2107L61.0462 54.5146L58.8038 55.8465L58.169 56.2232L57.6825 55.6656L56.3271 54.1055L56.3478 54.221L54.6007 54.5266L54.0341 51.2697L53.4883 48.1314L55.5765 50.5371L58.5368 53.9423L62.7043 51.4716C60.3627 49.6166 58.9544 48.2567 57.9909 46.8383L58.0681 48.0395L58.2551 50.982L56.4754 48.6328L53.2035 44.32L51.0916 48.7634L49.7776 51.5279L49.4128 48.4875L49.0806 45.7497L50.6498 45.5629L52.2277 42.2437L52.8536 40.9267L53.7344 42.0866L56.1074 45.2128L56.0362 44.1184L55.9502 42.763L57.2287 43.2315L59.3907 44.0235L56.9109 40.6865L51.6104 37.9458L50.7621 39.8648L49.8455 41.947L49.1128 39.7935L48.4039 37.7172L50.0147 37.1686L50.3676 36.3677L50.7473 35.5016L51.5867 35.9375L56.2733 38.3608L57.8363 37.8328C53.715 34.5762 51.7017 31.2943 50.6077 28L50.6079 28.0002Z" fill="white"/>
</svg>
