<svg width="91" height="91" viewBox="0 0 91 91" fill="none" xmlns="http://www.w3.org/2000/svg">
<circle cx="45.5" cy="45.5" r="45.5" fill="white" fill-opacity="0.89"/>
<path d="M42.25 50.1063L37.3937 45.25L34.75 47.8938L42.25 55.3938L57.25 40.3937L54.6063 37.75L42.25 50.1063Z" fill="#092A59"/>
<path d="M46 75.25L34.42 69.0756C31.1188 67.3193 28.3581 64.6972 26.4342 61.4907C24.5104 58.2842 23.496 54.6144 23.5 50.875V26.5C23.501 25.5057 23.8964 24.5525 24.5995 23.8494C25.3025 23.1464 26.2558 22.751 27.25 22.75H64.75C65.7443 22.751 66.6975 23.1464 67.4006 23.8494C68.1036 24.5525 68.499 25.5057 68.5 26.5V50.875C68.504 54.6144 67.4896 58.2842 65.5658 61.4907C63.6419 64.6972 60.8813 67.3193 57.58 69.0756L46 75.25ZM27.25 26.5V50.875C27.2469 53.9346 28.0771 56.9373 29.6514 59.5608C31.2258 62.1843 33.4849 64.3296 36.1863 65.7663L46 70.9994L55.8138 65.7681C58.5154 64.3313 60.7747 62.1858 62.3491 59.5619C63.9234 56.9381 64.7535 53.935 64.75 50.875V26.5H27.25Z" fill="#092A59"/>
</svg>
