<svg width="91" height="91" viewBox="0 0 91 91" fill="none" xmlns="http://www.w3.org/2000/svg">
<circle cx="45.5" cy="45.5" r="45.5" fill="white" fill-opacity="0.89"/>
<path d="M54.94 38.0825L47 32.8288V29.75H50.75V27.25H47V23.5H44.5V27.25H40.75V29.75H44.5V32.8288L36.56 38.0825C36.3878 38.1965 36.2465 38.3514 36.1488 38.5333C36.0511 38.7152 36 38.9185 36 39.125V44.5963L24.05 49.2087C23.8145 49.2996 23.612 49.4597 23.4692 49.6679C23.3264 49.876 23.25 50.1226 23.25 50.375V68.5H25.75V51.2325L37.7 46.62C37.9355 46.5291 38.138 46.3691 38.2808 46.1609C38.4236 45.9527 38.5 45.7062 38.5 45.4538V39.7963L45.75 35L53 39.7975V45.455C53.0003 45.7284 53.0901 45.9941 53.2559 46.2115C53.4216 46.4289 53.654 46.586 53.9175 46.6588L65.75 49.92V68.5H68.25V48.9688C68.25 48.6952 68.1603 48.4291 67.9945 48.2115C67.8288 47.9938 67.5962 47.8365 67.3325 47.7637L55.5 44.5013V39.125C55.5 38.9185 55.4489 38.7152 55.3512 38.5333C55.2535 38.3514 55.1122 38.1965 54.94 38.0825Z" fill="#092A59"/>
<path d="M37 53.5C37 53.1685 36.8683 52.8505 36.6339 52.6161C36.3995 52.3817 36.0815 52.25 35.75 52.25C35.4185 52.25 35.1005 52.3817 34.8661 52.6161C34.6317 52.8505 34.5 53.1685 34.5 53.5V68.5H37V53.5ZM55.75 52.25C56.0815 52.25 56.3995 52.3817 56.6339 52.6161C56.8683 52.8505 57 53.1685 57 53.5V68.5H54.5V53.5C54.5 53.1685 54.6317 52.8505 54.8661 52.6161C55.1005 52.3817 55.4185 52.25 55.75 52.25ZM45.75 53.5C44.7554 53.5 43.8016 53.8951 43.0983 54.5983C42.3951 55.3016 42 56.2554 42 57.25V68.5H49.5V57.25C49.5 56.2554 49.1049 55.3016 48.4017 54.5983C47.6984 53.8951 46.7446 53.5 45.75 53.5Z" fill="#092A59"/>
</svg>
