<svg width="100" height="100" viewBox="0 0 100 100" fill="none" xmlns="http://www.w3.org/2000/svg">
<circle cx="50" cy="50" r="50" fill="#092A59"/>
<path d="M53.1803 35.6011C49.6619 34.9136 46.022 35.2136 42.6636 36.4678C42.5006 36.5324 42.3518 36.6284 42.2259 36.7505C42.0999 36.8725 41.9993 37.0182 41.9296 37.1791C41.789 37.5042 41.7832 37.8718 41.9136 38.2011C42.044 38.5304 42.2999 38.7945 42.625 38.9351C42.95 39.0758 43.3176 39.0815 43.647 38.9511C46.5386 37.8578 49.6752 37.581 52.7136 38.1511C52.8917 38.198 53.0776 38.2075 53.2596 38.1789C53.4415 38.1504 53.6156 38.0845 53.7708 37.9853C53.926 37.8862 54.059 37.7559 54.1613 37.6028C54.2637 37.4498 54.3333 37.2771 54.3656 37.0958C54.3979 36.9145 54.3924 36.7284 54.3492 36.5494C54.3061 36.3703 54.2263 36.2022 54.115 36.0555C54.0036 35.9088 53.863 35.7868 53.7022 35.6971C53.5413 35.6074 53.3636 35.552 53.1803 35.5345V35.6011Z" fill="white"/>
<path d="M62.6133 48.2677C63.8652 48.2677 64.88 47.2529 64.88 46.001C64.88 44.7492 63.8652 43.7344 62.6133 43.7344C61.3615 43.7344 60.3467 44.7492 60.3467 46.001C60.3467 47.2529 61.3615 48.2677 62.6133 48.2677Z" fill="white"/>
<path fill-rule="evenodd" clip-rule="evenodd" d="M78.8891 48.658C79.1335 48.7859 79.3422 48.9726 79.4967 49.2011C79.6488 49.4297 79.7421 49.6923 79.7683 49.9656C79.7944 50.239 79.7527 50.5145 79.6467 50.7678L75.88 60.4511C75.7726 60.722 75.596 60.9599 75.3679 61.1412C75.1398 61.3225 74.8681 61.4409 74.58 61.4845C72.9194 61.6852 71.2406 61.6852 69.58 61.4845C68.0933 62.9559 66.404 64.2074 64.5634 65.2011C64.7467 65.9511 64.98 66.7345 65.28 67.6178C65.4967 68.2345 65.78 68.9511 66.0634 69.6178C66.1706 69.8711 66.2136 70.147 66.1883 70.4209C66.163 70.6949 66.0703 70.9583 65.9185 71.1877C65.7667 71.4171 65.5604 71.6053 65.3181 71.7356C65.0759 71.8659 64.8051 71.9342 64.53 71.9345H57.2967C57.0365 71.9325 56.7804 71.8697 56.5489 71.7511C56.3174 71.6324 56.1168 71.4612 55.9633 71.2511C55.23 70.2678 54.5634 69.2678 53.9467 68.2678C51.7299 68.4869 49.4968 68.4869 47.28 68.2678L45.3134 68.0511L45.9634 69.5511C46.0671 69.8036 46.1072 70.0777 46.0802 70.3494C46.0532 70.621 45.9599 70.8818 45.8085 71.109C45.657 71.3361 45.4522 71.5226 45.2118 71.652C44.9714 71.7814 44.703 71.8498 44.43 71.8511H36.8967C36.66 71.8508 36.4262 71.8001 36.2106 71.7024C35.9951 71.6047 35.8029 71.4622 35.6467 71.2845C33.4527 68.7109 31.6089 65.8584 30.1634 62.8011L29.88 62.1678C28.0712 58.5312 27.0382 54.5582 26.8467 50.5011L25.3134 49.7345C24.3519 49.2522 23.4986 48.5795 22.8052 47.7572C22.1118 46.9349 21.5929 45.9802 21.28 44.9511C21.0258 44.1019 20.9435 43.2105 21.0379 42.3291C21.1324 41.4476 21.4017 40.5939 21.83 39.8178C22.2908 38.9908 22.9566 38.2963 23.7634 37.8011C23.9658 37.6786 24.1904 37.5971 24.4244 37.5613C24.6583 37.5255 24.897 37.5362 25.1268 37.5927C25.3567 37.6492 25.5731 37.7504 25.7638 37.8905C25.9545 38.0307 26.1158 38.207 26.2384 38.4095C26.3609 38.6119 26.4424 38.8365 26.4782 39.0705C26.5139 39.3044 26.5033 39.5431 26.4468 39.7729C26.3903 40.0028 26.2891 40.2192 26.1489 40.4099C26.0088 40.6006 25.8325 40.7619 25.63 40.8845C25.3331 41.0572 25.0861 41.3042 24.9134 41.6011C24.7207 41.9548 24.6008 42.3434 24.5607 42.7442C24.5206 43.1449 24.5612 43.5496 24.68 43.9345C24.8658 44.4956 25.1662 45.0121 25.5621 45.4511C25.9581 45.89 26.4409 46.2419 26.98 46.4845C28.3634 36.3178 39.1633 28.6511 50.98 29.8011C53.9512 30.1135 56.854 30.8954 59.58 32.1178C60.9719 31.0267 62.4948 30.114 64.1133 29.4011C66.9375 28.1721 70.0443 27.7398 73.0967 28.1511C73.5745 28.2259 74.0265 28.4171 74.4131 28.7077C74.7996 28.9984 75.1088 29.3796 75.3134 29.8178C75.5176 30.2995 75.5987 30.8245 75.5492 31.3453C75.4997 31.8662 75.3213 32.3665 75.03 32.8011L70.23 40.3011C71.4047 42.5866 72.8788 44.7052 74.6134 46.6011C75.5147 47.6188 76.7501 48.2809 78.0967 48.4678C78.3725 48.4646 78.6448 48.53 78.8891 48.658ZM69.28 58.0845C70.5757 58.2808 71.8883 58.3423 73.1967 58.2678L75.8467 51.3345C74.5162 50.8059 73.3039 50.0184 72.28 49.0178C70.0757 46.5979 68.219 43.883 66.7634 40.9511L66.3467 40.1178L71.98 31.3011C69.7023 31.1023 67.4109 31.4747 65.3134 32.3845C63.728 33.1027 62.2612 34.0581 60.9633 35.2178L60.13 36.0011L59.0967 35.5178C56.4371 34.2154 53.573 33.381 50.63 33.0511C40.5134 32.1011 31.2134 38.6345 30.3134 47.2845C29.8667 51.9605 30.7812 56.666 32.9467 60.8345L33.2467 61.4845C34.4348 63.9943 35.9235 66.3504 37.68 68.5011H41.98C41.78 67.9845 40.73 63.9345 40.73 63.9345L43.3134 64.3845C44.7467 64.6345 46.58 64.8678 47.68 64.9678C50.041 65.1731 52.4177 65.106 54.7634 64.7678L55.88 64.6178C55.88 64.6178 57.8967 67.9845 58.2967 68.5511H62.2634C61.7134 66.9345 60.8967 63.2845 60.8967 63.2845L62.6633 62.4845C63.7455 61.9774 64.7545 61.3271 65.6633 60.5511C64.9279 60.2725 64.2099 59.9497 63.5134 59.5845C63.1329 59.373 62.8502 59.0211 62.7258 58.604C62.6014 58.187 62.6451 57.7377 62.8475 57.3524C63.05 56.9671 63.3951 56.6763 63.8092 56.5421C64.2233 56.408 64.6734 56.4411 65.0634 56.6345C66.38 57.3454 67.8046 57.8352 69.28 58.0845Z" fill="white"/>
</svg>
