<svg width="101" height="100" viewBox="0 0 101 100" fill="none" xmlns="http://www.w3.org/2000/svg">
<circle cx="50.5" cy="50" r="50" fill="#092A59"/>
<path d="M40.5 37C35.55 37 31.5 41.05 31.5 46C31.5 48.976 32.9655 51.625 35.2035 53.266C31.248 55.228 28.5 59.296 28.5 64H31.5C31.5 59.014 35.514 55 40.5 55C45.486 55 49.5 59.014 49.5 64H52.5C52.5 59.014 56.514 55 61.5 55C66.486 55 70.5 59.014 70.5 64H73.5C73.5 59.2945 70.752 55.228 66.7965 53.266C67.9418 52.4315 68.874 51.3386 69.5175 50.0761C70.161 48.8136 70.4976 47.417 70.5 46C70.5 41.05 66.45 37 61.5 37C56.55 37 52.5 41.05 52.5 46C52.5 48.976 53.9655 51.625 56.2035 53.266C54.0119 54.3435 52.1978 56.0593 51 58.1875C49.8022 56.0593 47.9881 54.3435 45.7965 53.266C46.9418 52.4315 47.874 51.3386 48.5175 50.0761C49.161 48.8136 49.4976 47.417 49.5 46C49.5 41.05 45.45 37 40.5 37ZM40.5 40C43.8345 40 46.5 42.6655 46.5 46C46.5 49.3345 43.8345 52 40.5 52C37.1655 52 34.5 49.3345 34.5 46C34.5 42.6655 37.1655 40 40.5 40ZM61.5 40C64.8345 40 67.5 42.6655 67.5 46C67.5 49.3345 64.8345 52 61.5 52C58.1655 52 55.5 49.3345 55.5 46C55.5 42.6655 58.1655 40 61.5 40Z" fill="white"/>
</svg>
