<svg width="20" height="20" viewBox="0 0 20 20" fill="none" xmlns="http://www.w3.org/2000/svg">
<path d="M15 1.66675H7.49998C6.58331 1.66675 5.83331 2.41675 5.83331 3.33341V4.16675C5.83331 4.38776 5.92111 4.59972 6.07739 4.756C6.23367 4.91228 6.44563 5.00008 6.66665 5.00008C6.88766 5.00008 7.09962 4.91228 7.2559 4.756C7.41218 4.59972 7.49998 4.38776 7.49998 4.16675V3.33341H15V16.6667H7.49998V15.8334C7.49998 15.6124 7.41218 15.4004 7.2559 15.2442C7.09962 15.0879 6.88766 15.0001 6.66665 15.0001C6.44563 15.0001 6.23367 15.0879 6.07739 15.2442C5.92111 15.4004 5.83331 15.6124 5.83331 15.8334V16.6667C5.83331 17.5834 6.58331 18.3334 7.49998 18.3334H15C15.9166 18.3334 16.6666 17.5834 16.6666 16.6667V3.33341C16.6666 2.41675 15.9166 1.66675 15 1.66675Z" fill="white"/>
<path d="M10.1708 13.5792C9.84583 13.9042 9.32083 13.9042 8.99583 13.5792C8.84006 13.4233 8.75249 13.2119 8.75233 12.9915C8.75218 12.7711 8.83944 12.5596 8.995 12.4034L10.5583 10.8334H3.33333C3.11232 10.8334 2.90036 10.7456 2.74408 10.5893C2.5878 10.433 2.5 10.2211 2.5 10.0001C2.5 9.77906 2.5878 9.5671 2.74408 9.41082C2.90036 9.25454 3.11232 9.16674 3.33333 9.16674H10.5583L8.995 7.59674C8.85183 7.43833 8.77499 7.23097 8.78038 7.01752C8.78577 6.80406 8.87297 6.60084 9.02395 6.44986C9.17493 6.29888 9.37816 6.21168 9.59161 6.20629C9.80506 6.2009 10.0124 6.27773 10.1708 6.42091L13.1608 9.41091C13.3171 9.56718 13.4048 9.7791 13.4048 10.0001C13.4048 10.221 13.3171 10.433 13.1608 10.5892L10.1708 13.5792Z" fill="white"/>
</svg>
