<svg width="21" height="20" viewBox="0 0 21 20" fill="none" xmlns="http://www.w3.org/2000/svg">
<path d="M15.5 1.66675H7.99998C7.08331 1.66675 6.33331 2.41675 6.33331 3.33341V4.16675C6.33331 4.38776 6.42111 4.59972 6.57739 4.756C6.73367 4.91228 6.94563 5.00008 7.16665 5.00008C7.38766 5.00008 7.59962 4.91228 7.7559 4.756C7.91218 4.59972 7.99998 4.38776 7.99998 4.16675V3.33341H15.5V16.6667H7.99998V15.8334C7.99998 15.6124 7.91218 15.4004 7.7559 15.2442C7.59962 15.0879 7.38766 15.0001 7.16665 15.0001C6.94563 15.0001 6.73367 15.0879 6.57739 15.2442C6.42111 15.4004 6.33331 15.6124 6.33331 15.8334V16.6667C6.33331 17.5834 7.08331 18.3334 7.99998 18.3334H15.5C16.4166 18.3334 17.1666 17.5834 17.1666 16.6667V3.33341C17.1666 2.41675 16.4166 1.66675 15.5 1.66675Z" fill="white"/>
<path d="M10.6708 13.5792C10.3458 13.9042 9.82083 13.9042 9.49583 13.5792C9.34006 13.4233 9.25249 13.2119 9.25233 12.9915C9.25218 12.7711 9.33944 12.5596 9.495 12.4034L11.0583 10.8334H3.83333C3.61232 10.8334 3.40036 10.7456 3.24408 10.5893C3.0878 10.433 3 10.2211 3 10.0001C3 9.77906 3.0878 9.5671 3.24408 9.41082C3.40036 9.25454 3.61232 9.16674 3.83333 9.16674H11.0583L9.495 7.59674C9.35183 7.43833 9.27499 7.23097 9.28038 7.01752C9.28577 6.80406 9.37297 6.60084 9.52395 6.44986C9.67493 6.29888 9.87816 6.21168 10.0916 6.20629C10.3051 6.2009 10.5124 6.27773 10.6708 6.42091L13.6608 9.41091C13.8171 9.56718 13.9048 9.7791 13.9048 10.0001C13.9048 10.221 13.8171 10.433 13.6608 10.5892L10.6708 13.5792Z" fill="white"/>
</svg>
