<svg width="21" height="20" viewBox="0 0 21 20" fill="none" xmlns="http://www.w3.org/2000/svg">
<path d="M15.5 1.66626H7.99998C7.08331 1.66626 6.33331 2.41626 6.33331 3.33293V4.16626C6.33331 4.38727 6.42111 4.59924 6.57739 4.75552C6.73367 4.9118 6.94563 4.99959 7.16665 4.99959C7.38766 4.99959 7.59962 4.9118 7.7559 4.75552C7.91218 4.59924 7.99998 4.38727 7.99998 4.16626V3.33293H15.5V16.6663H7.99998V15.8329C7.99998 15.6119 7.91218 15.4 7.7559 15.2437C7.59962 15.0874 7.38766 14.9996 7.16665 14.9996C6.94563 14.9996 6.73367 15.0874 6.57739 15.2437C6.42111 15.4 6.33331 15.6119 6.33331 15.8329V16.6663C6.33331 17.5829 7.08331 18.3329 7.99998 18.3329H15.5C16.4166 18.3329 17.1666 17.5829 17.1666 16.6663V3.33293C17.1666 2.41626 16.4166 1.66626 15.5 1.66626Z" fill="white"/>
<path d="M10.6708 13.5788C10.3458 13.9038 9.82083 13.9038 9.49583 13.5788C9.34006 13.4228 9.25249 13.2114 9.25233 12.991C9.25218 12.7706 9.33944 12.5591 9.495 12.4029L11.0583 10.8329H3.83333C3.61232 10.8329 3.40036 10.7451 3.24408 10.5888C3.0878 10.4326 3 10.2206 3 9.99959C3 9.77857 3.0878 9.56661 3.24408 9.41033C3.40036 9.25405 3.61232 9.16625 3.83333 9.16625H11.0583L9.495 7.59625C9.35183 7.43784 9.27499 7.23048 9.28038 7.01703C9.28577 6.80358 9.37297 6.60035 9.52395 6.44937C9.67493 6.29839 9.87816 6.21119 10.0916 6.2058C10.3051 6.20041 10.5124 6.27725 10.6708 6.42042L13.6608 9.41042C13.8171 9.56669 13.9048 9.77862 13.9048 9.99959C13.9048 10.2206 13.8171 10.4325 13.6608 10.5888L10.6708 13.5788Z" fill="white"/>
</svg>
