<svg width="20" height="20" viewBox="0 0 20 20" fill="none" xmlns="http://www.w3.org/2000/svg">
<path d="M15 1.66699H7.49998C6.58331 1.66699 5.83331 2.41699 5.83331 3.33366V4.16699C5.83331 4.38801 5.92111 4.59997 6.07739 4.75625C6.23367 4.91253 6.44563 5.00033 6.66665 5.00033C6.88766 5.00033 7.09962 4.91253 7.2559 4.75625C7.41218 4.59997 7.49998 4.38801 7.49998 4.16699V3.33366H15V16.667H7.49998V15.8337C7.49998 15.6126 7.41218 15.4007 7.2559 15.2444C7.09962 15.0881 6.88766 15.0003 6.66665 15.0003C6.44563 15.0003 6.23367 15.0881 6.07739 15.2444C5.92111 15.4007 5.83331 15.6126 5.83331 15.8337V16.667C5.83331 17.5837 6.58331 18.3337 7.49998 18.3337H15C15.9166 18.3337 16.6666 17.5837 16.6666 16.667V3.33366C16.6666 2.41699 15.9166 1.66699 15 1.66699Z" fill="white"/>
<path d="M10.1708 13.5795C9.84583 13.9045 9.32083 13.9045 8.99583 13.5795C8.84006 13.4235 8.75249 13.2122 8.75233 12.9917C8.75218 12.7713 8.83944 12.5598 8.995 12.4037L10.5583 10.8337H3.33333C3.11232 10.8337 2.90036 10.7459 2.74408 10.5896C2.5878 10.4333 2.5 10.2213 2.5 10.0003C2.5 9.7793 2.5878 9.56734 2.74408 9.41106C2.90036 9.25478 3.11232 9.16698 3.33333 9.16698H10.5583L8.995 7.59698C8.85183 7.43858 8.77499 7.23121 8.78038 7.01776C8.78577 6.80431 8.87297 6.60108 9.02395 6.4501C9.17493 6.29912 9.37816 6.21192 9.59161 6.20653C9.80506 6.20115 10.0124 6.27798 10.1708 6.42115L13.1608 9.41115C13.3171 9.56742 13.4048 9.77935 13.4048 10.0003C13.4048 10.2213 13.3171 10.4332 13.1608 10.5895L10.1708 13.5795Z" fill="white"/>
</svg>
