<svg width="27" height="20" viewBox="0 0 27 20" fill="none" xmlns="http://www.w3.org/2000/svg">
<path d="M26.6536 4.97094L26.6202 4.74651L26.5854 4.75453C26.348 3.64443 25.8012 2.62423 25.0082 1.81197C24.2151 0.999712 23.2083 0.428594 22.1042 0.164696C21.0001 -0.0992013 19.8439 -0.0450921 18.7692 0.320764C17.6946 0.686619 16.7456 1.34927 16.0318 2.23204C15.3181 3.11481 14.869 4.18162 14.7363 5.30903C14.6036 6.43645 14.7929 7.57839 15.2821 8.60272C15.7714 9.62706 16.5408 10.4919 17.5011 11.0973C18.4614 11.7026 19.5735 12.0236 20.7087 12.0232C21.0066 12.0232 21.2925 11.9778 21.5771 11.9364C21.4849 12.2463 21.39 12.5616 21.2377 12.8448C21.0855 13.2563 20.8477 13.613 20.6112 13.9723C20.4135 14.3611 20.0648 14.6243 19.8083 14.9569C19.5398 15.2802 19.1738 15.4953 18.8839 15.7638C18.5993 16.0444 18.2266 16.1846 17.93 16.3823C17.6201 16.56 17.3502 16.7564 17.0617 16.8499L16.3416 17.1465L15.7084 17.4097L16.355 20L17.1525 19.8076C17.4077 19.7435 17.7189 19.6687 18.073 19.5792C18.435 19.5124 18.8211 19.3294 19.2512 19.1624C19.6747 18.9713 20.1677 18.8444 20.6246 18.5385C21.0841 18.2473 21.6145 18.0041 22.082 17.6141C22.5349 17.2119 23.0813 16.8633 23.4848 16.3529C23.9256 15.8747 24.3611 15.3724 24.6991 14.8006C25.0905 14.2556 25.3564 13.6571 25.6369 13.0653C25.8907 12.4734 26.0951 11.8683 26.2621 11.2805C26.5787 10.1022 26.7203 8.9827 26.7751 8.02485C26.8205 7.06566 26.7938 6.26812 26.7377 5.691C26.7189 5.44999 26.6909 5.20979 26.6536 4.97094ZM11.9585 4.97094L11.9251 4.74651L11.8903 4.75453C11.653 3.64443 11.1061 2.62423 10.3131 1.81197C9.52005 0.999712 8.51324 0.428594 7.40914 0.164696C6.30505 -0.0992013 5.1488 -0.0450921 4.07417 0.320764C2.99955 0.686619 2.05047 1.34927 1.33676 2.23204C0.623052 3.11481 0.173873 4.18162 0.0412011 5.30903C-0.0914713 6.43645 0.0977847 7.57839 0.587071 8.60272C1.07636 9.62706 1.84568 10.4919 2.80601 11.0973C3.76635 11.7026 4.87845 12.0236 6.01365 12.0232C6.31156 12.0232 6.59744 11.9778 6.88199 11.9364C6.78981 12.2463 6.69496 12.5616 6.54267 12.8448C6.39038 13.2563 6.15258 13.613 5.91613 13.9723C5.71841 14.3611 5.36974 14.6243 5.11324 14.9569C4.84472 15.2802 4.47868 15.4953 4.18879 15.7638C3.90424 16.0444 3.53152 16.1846 3.23494 16.3823C2.92501 16.56 2.65515 16.7564 2.3666 16.8499L1.64654 17.1465C1.24443 17.3108 1.01465 17.407 1.01465 17.407L1.66123 19.9973L2.45878 19.805C2.71393 19.7408 3.0252 19.666 3.37922 19.5765C3.74125 19.5097 4.12733 19.3267 4.5575 19.1597C4.98098 18.9687 5.47394 18.8418 5.93082 18.5358C6.39038 18.2446 6.92073 18.0015 7.3883 17.6114C7.84118 17.2093 8.38757 16.8606 8.79102 16.3503C9.23187 15.872 9.66738 15.3697 10.0054 14.7979C10.3968 14.2529 10.6626 13.6544 10.9432 13.0626C11.197 12.4708 11.4014 11.8656 11.5684 11.2778C11.885 10.0995 12.0266 8.98003 12.0814 8.02218C12.1268 7.06299 12.1001 6.26545 12.044 5.68833C12.024 5.44826 11.9955 5.20898 11.9585 4.97094Z" fill="#092A59"/>
</svg>
