<svg width="12" height="15" viewBox="0 0 12 15" fill="none" xmlns="http://www.w3.org/2000/svg">
<path fill-rule="evenodd" clip-rule="evenodd" d="M4.61908 8.12001C5.05957 8.41433 5.57744 8.57143 6.10721 8.57143C6.81735 8.57058 7.49817 8.2881 8.00031 7.78595C8.50246 7.28381 8.78493 6.603 8.78579 5.89286C8.78578 5.36309 8.62869 4.84521 8.33437 4.40472C8.04004 3.96424 7.6217 3.62092 7.13226 3.41818C6.64281 3.21545 6.10424 3.1624 5.58465 3.26575C5.06506 3.36911 4.58778 3.62422 4.21318 3.99882C3.83857 4.37343 3.58346 4.8507 3.48011 5.3703C3.37676 5.88989 3.4298 6.42846 3.63254 6.9179C3.83527 7.40735 4.17859 7.82568 4.61908 8.12001ZM5.21433 4.55657C5.47863 4.37997 5.78935 4.28572 6.10721 4.28572C6.53332 4.28614 6.94186 4.4556 7.24317 4.75691C7.54447 5.05821 7.71393 5.46675 7.71436 5.89286C7.71436 6.21072 7.6201 6.52145 7.4435 6.78574C7.26691 7.05003 7.01591 7.25602 6.72224 7.37767C6.42857 7.49931 6.10543 7.53113 5.79368 7.46912C5.48192 7.40711 5.19556 7.25404 4.97079 7.02928C4.74603 6.80452 4.59296 6.51815 4.53095 6.2064C4.46894 5.89464 4.50077 5.5715 4.62241 5.27783C4.74405 4.98416 4.95004 4.73316 5.21433 4.55657Z" fill="#092A59"/>
<path fill-rule="evenodd" clip-rule="evenodd" d="M1.58793 9.67018L6.10722 15L10.6281 9.66804C10.6522 9.63964 10.8129 9.42857 10.8129 9.42857L10.8135 9.42696C11.5851 8.41053 12.0019 7.169 12.0001 5.89286C12.0001 4.32997 11.3792 2.8311 10.2741 1.72598C9.16897 0.620853 7.6701 0 6.10722 0C4.54434 0 3.04546 0.620853 1.94034 1.72598C0.835215 2.8311 0.214362 4.32997 0.214362 5.89286C0.21249 7.16958 0.62953 8.41167 1.4015 9.42857C1.46299 9.50961 1.52514 9.59015 1.58793 9.67018ZM2.31465 8.8588C2.28343 8.81778 2.2565 8.78304 2.2565 8.78304C1.62531 7.95183 1.28467 6.93656 1.28579 5.89286C1.28579 4.61413 1.79376 3.38779 2.69795 2.48359C3.60215 1.5794 4.8285 1.07143 6.10722 1.07143C7.38594 1.07143 8.61229 1.5794 9.51648 2.48359C10.4207 3.38779 10.9286 4.61413 10.9286 5.89286C10.9299 6.93591 10.5891 7.9506 9.95847 8.78143C9.95847 8.78143 9.95083 8.79148 9.9392 8.80684C9.90299 8.85465 9.82684 8.9552 9.809 8.9775L6.10722 13.3436L2.41025 8.98339C2.39489 8.96426 2.35145 8.90717 2.31465 8.8588Z" fill="#092A59"/>
</svg>
