<svg width="86" height="80" viewBox="0 0 86 80" fill="none" xmlns="http://www.w3.org/2000/svg">
<path d="M0.333496 0V64H43.0002L42.4135 63.7334C41.6539 63.2132 41.0235 62.526 40.5705 61.7245C40.1175 60.923 39.854 60.0284 39.8002 59.1094V58.6667H5.66683V5.33334H80.3335V58.6667H72.7069V59.0934C72.6551 60.0113 72.3947 60.9053 71.9456 61.7074C71.4965 62.5096 70.8703 63.1988 70.1149 63.7227L69.6669 64H85.6669V0H0.333496Z" fill="#A22531"/>
<path d="M75.0009 51.0933C75.1376 50.818 75.2083 50.5147 75.2074 50.2074C75.2065 49.9 75.1339 49.5971 74.9956 49.3227L72.4409 45.6C72.3929 45.5307 72.3663 45.4506 72.3663 45.36C72.3663 45.2693 72.3929 45.1893 72.4409 45.12L75.0009 41.3866C75.1376 41.1114 75.2083 40.808 75.2074 40.5007C75.2065 40.1933 75.1339 39.8904 74.9956 39.616C74.8895 39.3269 74.722 39.0643 74.5047 38.8461C74.2875 38.6279 74.0255 38.4593 73.7369 38.352L69.3476 36.7466C69.2665 36.719 69.1942 36.6704 69.138 36.6058C69.0818 36.5411 69.0437 36.4628 69.0276 36.3786V31.8933C69.0106 31.576 68.9204 31.2669 68.7641 30.9902C68.6077 30.7135 68.3894 30.4768 68.1263 30.2986C67.7634 30.0506 67.3338 29.9186 66.8943 29.92H65.9876L61.4543 31.0933C61.3328 31.1422 61.1971 31.1422 61.0756 31.0933L58.1476 27.6266C57.9338 27.3942 57.6741 27.2087 57.3849 27.0818C57.0958 26.9549 56.7834 26.8893 56.4676 26.8893C56.1518 26.8893 55.8394 26.9549 55.5503 27.0818C55.2611 27.2087 55.0014 27.3942 54.7876 27.6266L51.8543 31.0933C51.7328 31.1422 51.5971 31.1422 51.4756 31.0933H51.4809L46.6809 29.8666H46.1049C45.6604 29.8653 45.2257 29.9972 44.8569 30.2453C44.596 30.4241 44.3796 30.6604 44.2243 30.9359C44.069 31.2114 43.9789 31.5189 43.9609 31.8346V36.32C43.9456 36.4043 43.9085 36.4831 43.8533 36.5486C43.7981 36.6141 43.7267 36.664 43.6463 36.6933L39.2676 38.2933C38.7668 38.3751 38.3111 38.6315 37.9811 39.0171C37.6512 39.4027 37.4683 39.8925 37.4649 40.4C37.4649 40.72 37.5396 41.024 37.6729 41.2906L40.2276 45.0133C40.2756 45.0826 40.3022 45.1626 40.3022 45.2533C40.3022 45.344 40.2756 45.424 40.2276 45.4933L37.6676 49.2266C37.5309 49.5019 37.4602 49.8053 37.4611 50.1126C37.4621 50.42 37.5346 50.7229 37.6729 50.9973C37.7791 51.2864 37.9465 51.549 38.1638 51.7672C38.3811 51.9854 38.643 52.1539 38.9316 52.2613L43.3209 53.8667C43.402 53.8943 43.4743 53.9429 43.5305 54.0075C43.5867 54.0722 43.6248 54.1505 43.6409 54.2346V58.72C43.6579 59.0373 43.7481 59.3464 43.9045 59.6231C44.0608 59.8997 44.2791 60.1365 44.5423 60.3147C44.9111 60.5628 45.3458 60.6946 45.7903 60.6933H46.6863L48.3396 60.32V80L56.4996 69.3333L64.3396 80V60.32L65.9929 60.7467H66.6223C67.0668 60.748 67.5015 60.6161 67.8703 60.368C68.1311 60.1892 68.3476 59.9529 68.5029 59.6774C68.6582 59.4019 68.7483 59.0944 68.7663 58.7787V54.2933C68.7816 54.209 68.8187 54.1302 68.8739 54.0647C68.9291 53.9992 69.0005 53.9493 69.0809 53.92L73.4596 52.32C73.7938 52.254 74.1076 52.1099 74.3755 51.8995C74.6434 51.6891 74.8577 51.4184 75.0009 51.1093V51.0933Z" fill="#A22531"/>
<path d="M40.6724 28.7862C40.2218 29.6282 39.9776 30.5652 39.9602 31.52V32H16.3335V26.6667H42.5971C42.5821 26.6699 42.5671 26.6734 42.5522 26.6773C41.7674 27.2214 41.1231 27.9443 40.6724 28.7862Z" fill="#A22531"/>
<path d="M43.0055 26.6667H42.5971C42.7316 26.6381 42.8707 26.638 43.0055 26.6667Z" fill="#A22531"/>
<path d="M16.3335 37.3334H34.5735C34.2893 37.5492 34.0878 37.8561 34.0028 38.2027C33.7141 38.9195 33.5868 39.6911 33.6301 40.4627C33.6735 41.2342 33.8863 41.9867 34.2535 42.6667H16.3335V37.3334Z" fill="#A22531"/>
<path d="M69.6669 16H16.3335V21.3333H69.6669V16Z" fill="#A22531"/>
</svg>
