<svg width="64" height="64" viewBox="0 0 64 64" fill="none" xmlns="http://www.w3.org/2000/svg">
<circle cx="32" cy="32" r="31.5" fill="white" stroke="#7D7C7C"/>
<path d="M31 37H33V32.8L34.6 34.4L36 33L32 29L28 33L29.4 34.4L31 32.8V37ZM24 40C23.45 40 22.9793 39.8043 22.588 39.413C22.196 39.021 22 38.55 22 38V26C22 25.45 22.196 24.9793 22.588 24.588C22.9793 24.196 23.45 24 24 24H30L32 26H40C40.55 26 41.021 26.196 41.413 26.588C41.8043 26.9793 42 27.45 42 28V38C42 38.55 41.8043 39.021 41.413 39.413C41.021 39.8043 40.55 40 40 40H24ZM24 26V38H40V28H31.175L29.175 26H24Z" fill="#A22531"/>
</svg>
