<svg width="76" height="80" viewBox="0 0 76 80" fill="none" xmlns="http://www.w3.org/2000/svg">
<path d="M37.9998 0C36.0767 0 34.1659 0.646154 32.5198 1.82769L27.4244 5.38462L21.5536 6.15385H21.4582L21.3628 6.24923C19.4374 6.68405 17.6746 7.65565 16.2789 9.05142C14.8831 10.4472 13.9115 12.21 13.4767 14.1354L13.3844 14.2308V14.3262L12.6151 20.2892L9.05822 24.9046L8.95975 25V25.0954C6.80899 28.5323 6.7136 32.9692 9.05822 36.2492L12.7105 41.3446L13.6736 46.6369L3.76899 61.7292L0.59668 66.4431H15.3074L18.8644 74.7108L21.0767 80L24.249 75.1908L33.9598 60.5754C36.569 61.6462 39.5136 61.7446 42.0398 60.5754L51.7505 75.1908L54.9228 80L57.1351 74.7108L60.6921 66.4431H75.4028L72.2305 61.7292L62.6151 47.1169L63.3844 41.3477L66.9413 36.2523L67.0397 36.1569V36.0615C69.1905 32.6246 69.2859 28.2831 66.9413 25.0031L63.3844 19.9046L62.2305 14.1354H62.3259C62.3136 14.0615 62.2428 14.0123 62.2305 13.9415C61.6767 9.91692 58.4921 6.64923 54.4428 6.15385H54.3444L48.5751 5.38462L43.4798 1.82769C41.8884 0.661902 39.9723 0.0228571 37.9998 0ZM37.9998 6.24923C38.7074 6.24923 39.4059 6.46461 39.9228 6.82769L45.4028 10.7692L46.0767 11.2492L46.8459 11.3477L53.5782 12.3077H53.6705C55.0551 12.4615 56.0151 13.4246 56.1721 14.8092V15L57.4244 21.8277L57.5167 22.5015L57.9998 23.0769L61.9413 28.5569C62.6767 29.5785 62.7721 31.3108 61.8459 32.7877L57.5198 38.8462L57.4213 39.6154L56.4613 46.3477V46.44C56.4101 46.9209 56.2456 47.3827 55.9813 47.7877L55.7874 47.8862V47.9785C55.3302 48.5277 54.6743 48.8739 53.9628 48.9415H53.769L46.7505 50.1938L45.9813 50.2862L45.4028 50.7692L39.9228 54.7108C38.9013 55.4462 37.0736 55.5415 35.5967 54.6154L30.5967 50.7692L30.0182 50.2892L29.1536 50.1908L22.4213 49.2308H22.329C21.8939 49.1924 21.4745 49.0499 21.106 48.8153C20.7376 48.5808 20.431 48.261 20.2121 47.8831C20.0076 47.5282 19.8768 47.1358 19.8274 46.7292V46.5385L18.5782 39.52L18.4798 38.7508L17.9998 38.1723L14.0582 32.6923C13.3228 31.6708 13.2274 29.8431 14.1536 28.3662L17.9998 23.3662L18.4798 22.7877L18.5751 21.9231L19.4428 15.48C19.4551 15.4338 19.5259 15.4338 19.5382 15.3846C19.73 14.6439 20.1165 13.968 20.6575 13.427C21.1985 12.886 21.8744 12.4995 22.6151 12.3077C22.6644 12.2954 22.6644 12.2246 22.7105 12.2123L29.1536 11.3446L29.9228 11.2523L30.5967 10.7692L36.0767 6.82769C36.5936 6.46769 37.2921 6.24923 37.9998 6.24923ZM59.249 53.0769L63.9628 60.2892H56.5536L55.7844 62.2123L53.6705 67.1138L47.1321 57.1138L48.5721 56.0585L54.6336 55V55.0954C54.7044 55.0831 54.7505 55.0123 54.8244 55C56.4438 54.7664 57.9739 54.1022 59.249 53.0769ZM16.7505 53.1723C18.0866 54.387 19.7651 55.1596 21.5567 55.3846H21.6521L27.5198 56.1538L28.8644 57.2123L22.3259 67.1138L20.2121 62.2123L19.4428 60.2892H12.0398L16.7505 53.1723Z" fill="#A22531"/>
</svg>
