<svg width="21" height="20" viewBox="0 0 21 20" fill="none" xmlns="http://www.w3.org/2000/svg">
<path d="M13.131 12.0821C12.8378 11.7498 12.5152 11.4565 12.1633 11.2023C11.8114 10.9482 11.4334 10.7299 11.0293 10.5474C10.6253 10.3649 10.2147 10.2313 9.79767 10.1466C9.3806 10.0619 8.94397 10.0163 8.4878 10.0098C7.91432 10.0098 7.3604 10.0847 6.82602 10.2346C6.29165 10.3845 5.79311 10.593 5.33042 10.8602C4.86773 11.1274 4.4474 11.4532 4.06942 11.8377C3.69145 12.2222 3.36561 12.6458 3.09191 13.1085C2.8182 13.5712 2.60641 14.0697 2.45652 14.6041C2.30663 15.1385 2.23169 15.6924 2.23169 16.2659H0.980469C0.980469 15.4839 1.09451 14.7312 1.3226 14.0078C1.55069 13.2845 1.87978 12.6165 2.30989 12.0039C2.74 11.3913 3.24831 10.8472 3.83482 10.3715C4.42133 9.89573 5.08604 9.52102 5.82895 9.24731C5.09256 8.76507 4.51908 8.15901 4.10852 7.42913C3.69797 6.69925 3.48943 5.89117 3.48291 5.00489C3.48291 4.31411 3.61325 3.66569 3.87392 3.05963C4.13459 2.45357 4.48976 1.92245 4.93941 1.46628C5.38907 1.0101 5.92019 0.651678 6.53277 0.391007C7.14534 0.130336 7.79702 0 8.4878 0C9.17858 0 9.827 0.130336 10.4331 0.391007C11.0391 0.651678 11.5702 1.00684 12.0264 1.4565C12.4826 1.90616 12.841 2.43728 13.1017 3.04985C13.3624 3.66243 13.4927 4.31411 13.4927 5.00489C13.4927 5.435 13.4406 5.85533 13.3363 6.26588C13.232 6.67644 13.0756 7.06419 12.8671 7.42913C12.6585 7.79407 12.4142 8.12968 12.1339 8.43597C11.8537 8.74226 11.5246 9.01271 11.1466 9.24731C11.6941 9.45585 12.2089 9.72304 12.6911 10.0489C13.1734 10.3747 13.6132 10.7559 14.0108 11.1926L13.131 12.0821ZM4.73413 5.00489C4.73413 5.52623 4.83189 6.01173 5.02739 6.46139C5.22289 6.91105 5.49008 7.30857 5.82895 7.65396C6.16783 7.99935 6.56535 8.26979 7.02152 8.4653C7.4777 8.6608 7.96646 8.75855 8.4878 8.75855C9.00263 8.75855 9.48813 8.6608 9.9443 8.4653C10.4005 8.26979 10.798 8.00261 11.1369 7.66373C11.4757 7.32486 11.7462 6.92734 11.9482 6.47116C12.1502 6.01499 12.248 5.52623 12.2415 5.00489C12.2415 4.49006 12.1437 4.00456 11.9482 3.54839C11.7527 3.09221 11.4855 2.69469 11.1466 2.35582C10.8078 2.01694 10.407 1.7465 9.9443 1.54448C9.48161 1.34246 8.99611 1.24471 8.4878 1.25122C7.96646 1.25122 7.48096 1.34897 7.0313 1.54448C6.58164 1.73998 6.18412 2.00717 5.83873 2.34604C5.49334 2.68491 5.22289 3.0857 5.02739 3.54839C4.83189 4.01108 4.73413 4.49658 4.73413 5.00489ZM19.045 8.75855C19.3187 8.75855 19.5728 8.80743 19.8074 8.90518C20.0421 9.00293 20.2506 9.13653 20.4331 9.30596C20.6155 9.4754 20.7524 9.68068 20.8436 9.9218C20.9349 10.1629 20.987 10.4203 21 10.694C21 10.9482 20.9511 11.1958 20.8534 11.4369C20.7556 11.6781 20.6155 11.8899 20.4331 12.0723L13.4243 19.0811L9.73902 20L10.6579 16.3148L17.6667 9.31574C17.8557 9.12675 18.0675 8.98664 18.3021 8.89541C18.5367 8.80417 18.7843 8.75855 19.045 8.75855ZM19.5435 11.1926C19.6804 11.0557 19.7488 10.8895 19.7488 10.694C19.7488 10.492 19.6836 10.3291 19.5533 10.2053C19.423 10.0815 19.2535 10.0163 19.045 10.0098C18.9538 10.0098 18.8658 10.0228 18.7811 10.0489C18.6963 10.0749 18.6214 10.1238 18.5562 10.1955L11.7918 16.9599L11.4595 18.2796L12.7791 17.9472L19.5435 11.1926Z" fill="#A22531"/>
</svg>
