<svg width="25" height="26" viewBox="0 0 25 26" fill="none" xmlns="http://www.w3.org/2000/svg">
<path d="M10.75 18.532L19.5625 9.72195L17.8125 7.97244L10.75 15.033L7.1875 11.4715L5.4375 13.221L10.75 18.532ZM12.5 25.2801C10.7708 25.2801 9.14583 24.9518 7.625 24.2953C6.10417 23.6397 4.78125 22.7495 3.65625 21.6248C2.53125 20.5002 1.64083 19.1776 0.985 17.6572C0.328333 16.1368 0 14.5123 0 12.7836C0 11.0549 0.328333 9.43037 0.985 7.90996C1.64083 6.38956 2.53125 5.06701 3.65625 3.94233C4.78125 2.81765 6.10417 1.92706 7.625 1.27058C9.14583 0.614934 10.7708 0.287109 12.5 0.287109C14.2292 0.287109 15.8542 0.614934 17.375 1.27058C18.8958 1.92706 20.2188 2.81765 21.3438 3.94233C22.4688 5.06701 23.3592 6.38956 24.015 7.90996C24.6717 9.43037 25 11.0549 25 12.7836C25 14.5123 24.6717 16.1368 24.015 17.6572C23.3592 19.1776 22.4688 20.5002 21.3438 21.6248C20.2188 22.7495 18.8958 23.6397 17.375 24.2953C15.8542 24.9518 14.2292 25.2801 12.5 25.2801ZM12.5 22.7808C15.2917 22.7808 17.6562 21.8123 19.5938 19.8753C21.5312 17.9384 22.5 15.5745 22.5 12.7836C22.5 9.99271 21.5312 7.62879 19.5938 5.69184C17.6562 3.75488 15.2917 2.7864 12.5 2.7864C9.70833 2.7864 7.34375 3.75488 5.40625 5.69184C3.46875 7.62879 2.5 9.99271 2.5 12.7836C2.5 15.5745 3.46875 17.9384 5.40625 19.8753C7.34375 21.8123 9.70833 22.7808 12.5 22.7808Z" fill="white"/>
</svg>
