<svg width="24" height="24" viewBox="0 0 24 24" fill="none" xmlns="http://www.w3.org/2000/svg">
<path d="M10.32 17.52L18.78 9.06L17.1 7.38L10.32 14.16L6.9 10.74L5.22 12.42L10.32 17.52ZM12 24C10.34 24 8.78 23.6848 7.32 23.0544C5.86 22.4248 4.59 21.57 3.51 20.49C2.43 19.41 1.5752 18.14 0.9456 16.68C0.3152 15.22 0 13.66 0 12C0 10.34 0.3152 8.78 0.9456 7.32C1.5752 5.86 2.43 4.59 3.51 3.51C4.59 2.43 5.86 1.5748 7.32 0.9444C8.78 0.3148 10.34 0 12 0C13.66 0 15.22 0.3148 16.68 0.9444C18.14 1.5748 19.41 2.43 20.49 3.51C21.57 4.59 22.4248 5.86 23.0544 7.32C23.6848 8.78 24 10.34 24 12C24 13.66 23.6848 15.22 23.0544 16.68C22.4248 18.14 21.57 19.41 20.49 20.49C19.41 21.57 18.14 22.4248 16.68 23.0544C15.22 23.6848 13.66 24 12 24ZM12 21.6C14.68 21.6 16.95 20.67 18.81 18.81C20.67 16.95 21.6 14.68 21.6 12C21.6 9.32 20.67 7.05 18.81 5.19C16.95 3.33 14.68 2.4 12 2.4C9.32 2.4 7.05 3.33 5.19 5.19C3.33 7.05 2.4 9.32 2.4 12C2.4 14.68 3.33 16.95 5.19 18.81C7.05 20.67 9.32 21.6 12 21.6Z" fill="white"/>
</svg>
