<svg width="25" height="26" viewBox="0 0 25 26" fill="none" xmlns="http://www.w3.org/2000/svg">
<path d="M10.75 18.5007L19.5625 9.6907L17.8125 7.94119L10.75 15.0017L7.1875 11.4402L5.4375 13.1897L10.75 18.5007ZM12.5 25.2488C10.7708 25.2488 9.14583 24.9206 7.625 24.2641C6.10417 23.6084 4.78125 22.7183 3.65625 21.5936C2.53125 20.4689 1.64083 19.1464 0.985 17.626C0.328333 16.1056 0 14.481 0 12.7523C0 11.0237 0.328333 9.39912 0.985 7.87871C1.64083 6.35831 2.53125 5.03576 3.65625 3.91108C4.78125 2.7864 6.10417 1.89581 7.625 1.23933C9.14583 0.583684 10.7708 0.255859 12.5 0.255859C14.2292 0.255859 15.8542 0.583684 17.375 1.23933C18.8958 1.89581 20.2188 2.7864 21.3438 3.91108C22.4688 5.03576 23.3592 6.35831 24.015 7.87871C24.6717 9.39912 25 11.0237 25 12.7523C25 14.481 24.6717 16.1056 24.015 17.626C23.3592 19.1464 22.4688 20.4689 21.3438 21.5936C20.2188 22.7183 18.8958 23.6084 17.375 24.2641C15.8542 24.9206 14.2292 25.2488 12.5 25.2488ZM12.5 22.7495C15.2917 22.7495 17.6562 21.781 19.5938 19.8441C21.5312 17.9071 22.5 15.5432 22.5 12.7523C22.5 9.96146 21.5312 7.59754 19.5938 5.66059C17.6562 3.72363 15.2917 2.75515 12.5 2.75515C9.70833 2.75515 7.34375 3.72363 5.40625 5.66059C3.46875 7.59754 2.5 9.96146 2.5 12.7523C2.5 15.5432 3.46875 17.9071 5.40625 19.8441C7.34375 21.781 9.70833 22.7495 12.5 22.7495Z" fill="white"/>
</svg>
