<svg width="25" height="26" viewBox="0 0 25 26" fill="none" xmlns="http://www.w3.org/2000/svg">
<path d="M10.75 18.5456L19.5625 9.73562L17.8125 7.98611L10.75 15.0466L7.1875 11.4851L5.4375 13.2346L10.75 18.5456ZM12.5 25.2937C10.7708 25.2937 9.14583 24.9655 7.625 24.309C6.10417 23.6534 4.78125 22.7632 3.65625 21.6385C2.53125 20.5138 1.64083 19.1913 0.985 17.6709C0.328333 16.1505 0 14.5259 0 12.7973C0 11.0686 0.328333 9.44404 0.985 7.92363C1.64083 6.40323 2.53125 5.08068 3.65625 3.956C4.78125 2.83132 6.10417 1.94074 7.625 1.28425C9.14583 0.628605 10.7708 0.300781 12.5 0.300781C14.2292 0.300781 15.8542 0.628605 17.375 1.28425C18.8958 1.94074 20.2188 2.83132 21.3438 3.956C22.4688 5.08068 23.3592 6.40323 24.015 7.92363C24.6717 9.44404 25 11.0686 25 12.7973C25 14.5259 24.6717 16.1505 24.015 17.6709C23.3592 19.1913 22.4688 20.5138 21.3438 21.6385C20.2188 22.7632 18.8958 23.6534 17.375 24.309C15.8542 24.9655 14.2292 25.2937 12.5 25.2937ZM12.5 22.7944C15.2917 22.7944 17.6562 21.826 19.5938 19.889C21.5312 17.9521 22.5 15.5881 22.5 12.7973C22.5 10.0064 21.5312 7.64246 19.5938 5.70551C17.6562 3.76855 15.2917 2.80008 12.5 2.80008C9.70833 2.80008 7.34375 3.76855 5.40625 5.70551C3.46875 7.64246 2.5 10.0064 2.5 12.7973C2.5 15.5881 3.46875 17.9521 5.40625 19.889C7.34375 21.826 9.70833 22.7944 12.5 22.7944Z" fill="white"/>
</svg>
