<svg width="24" height="29" viewBox="0 0 24 29" fill="none" xmlns="http://www.w3.org/2000/svg">
<path d="M10.32 20.7289L18.78 11.0693L17.1 9.15109L10.32 16.8925L6.9 12.9875L5.22 14.9058L10.32 20.7289ZM12 28.1278C10.34 28.1278 8.78 27.7679 7.32 27.0481C5.86 26.3292 4.59 25.3532 3.51 24.1201C2.43 22.8869 1.5752 21.4369 0.9456 19.7698C0.3152 18.1028 0 16.3216 0 14.4262C0 12.5308 0.3152 10.7496 0.9456 9.08258C1.5752 7.41556 2.43 5.96547 3.51 4.73233C4.59 3.49918 5.86 2.52272 7.32 1.80292C8.78 1.08405 10.34 0.724609 12 0.724609C13.66 0.724609 15.22 1.08405 16.68 1.80292C18.14 2.52272 19.41 3.49918 20.49 4.73233C21.57 5.96547 22.4248 7.41556 23.0544 9.08258C23.6848 10.7496 24 12.5308 24 14.4262C24 16.3216 23.6848 18.1028 23.0544 19.7698C22.4248 21.4369 21.57 22.8869 20.49 24.1201C19.41 25.3532 18.14 26.3292 16.68 27.0481C15.22 27.7679 13.66 28.1278 12 28.1278ZM12 25.3875C14.68 25.3875 16.95 24.3256 18.81 22.2019C20.67 20.0781 21.6 17.4862 21.6 14.4262C21.6 11.3662 20.67 8.7743 18.81 6.65055C16.95 4.5268 14.68 3.46493 12 3.46493C9.32 3.46493 7.05 4.5268 5.19 6.65055C3.33 8.7743 2.4 11.3662 2.4 14.4262C2.4 17.4862 3.33 20.0781 5.19 22.2019C7.05 24.3256 9.32 25.3875 12 25.3875Z" fill="white"/>
</svg>
