<svg width="24" height="29" viewBox="0 0 24 29" fill="none" xmlns="http://www.w3.org/2000/svg">
<path d="M10.32 20.7563L18.78 11.0967L17.1 9.17843L10.32 16.9198L6.9 13.0149L5.22 14.9331L10.32 20.7563ZM12 28.1551C10.34 28.1551 8.78 27.7952 7.32 27.0755C5.86 26.3566 4.59 25.3806 3.51 24.1474C2.43 22.9143 1.5752 21.4642 0.9456 19.7972C0.3152 18.1301 0 16.3489 0 14.4535C0 12.5582 0.3152 10.777 0.9456 9.10993C1.5752 7.4429 2.43 5.99281 3.51 4.75967C4.59 3.52653 5.86 2.55006 7.32 1.83027C8.78 1.11139 10.34 0.751953 12 0.751953C13.66 0.751953 15.22 1.11139 16.68 1.83027C18.14 2.55006 19.41 3.52653 20.49 4.75967C21.57 5.99281 22.4248 7.4429 23.0544 9.10993C23.6848 10.777 24 12.5582 24 14.4535C24 16.3489 23.6848 18.1301 23.0544 19.7972C22.4248 21.4642 21.57 22.9143 20.49 24.1474C19.41 25.3806 18.14 26.3566 16.68 27.0755C15.22 27.7952 13.66 28.1551 12 28.1551ZM12 25.4148C14.68 25.4148 16.95 24.3529 18.81 22.2292C20.67 20.1055 21.6 17.5136 21.6 14.4535C21.6 11.3935 20.67 8.80164 18.81 6.67789C16.95 4.55415 14.68 3.49227 12 3.49227C9.32 3.49227 7.05 4.55415 5.19 6.67789C3.33 8.80164 2.4 11.3935 2.4 14.4535C2.4 17.5136 3.33 20.1055 5.19 22.2292C7.05 24.3529 9.32 25.4148 12 25.4148Z" fill="white"/>
</svg>
