<svg width="16" height="12" viewBox="0 0 16 12" fill="none" xmlns="http://www.w3.org/2000/svg">
<path d="M14.1421 11.53C13.9418 11.6785 13.7061 11.7526 13.435 11.7522C13.164 11.7526 12.9283 11.6785 12.7279 11.53C12.5276 11.3815 12.4276 11.2068 12.4281 11.0059C12.4276 10.805 12.5276 10.6303 12.7279 10.4818L14.1421 9.43359C14.3425 9.2851 14.5784 9.21085 14.8499 9.21085C15.1205 9.21085 15.356 9.2851 15.5563 9.43359C15.7567 9.58209 15.8569 9.75662 15.8569 9.95718C15.8569 10.1584 15.7567 10.3333 15.5563 10.4818L14.1421 11.53ZM2.12132 9.9577C1.92097 10.1062 1.68551 10.1804 1.41492 10.1804C1.14339 10.1804 0.907454 10.1062 0.707107 9.9577C0.50676 9.8092 0.406587 9.63433 0.406587 9.43307C0.406587 9.23251 0.50676 9.05798 0.707107 8.90949L12.0208 0.523747C12.2212 0.37525 12.4566 0.301002 12.7272 0.301002C12.9987 0.301001 13.2347 0.37525 13.435 0.523748C13.6354 0.672245 13.7355 0.847122 13.7355 1.04838C13.7355 1.24894 13.6354 1.42347 13.435 1.57196L2.12132 9.9577ZM7.77817 11.0059C7.57783 11.1544 7.34189 11.2287 7.07036 11.2287C6.79977 11.2287 6.56431 11.1544 6.36396 11.0059C6.16361 10.8574 6.0632 10.6827 6.06273 10.4818C6.0632 10.2809 6.16361 10.1062 6.36396 9.9577L13.435 4.71662C13.6354 4.56812 13.8708 4.49387 14.1414 4.49387C14.413 4.49387 14.6489 4.56812 14.8492 4.71662C15.0496 4.86511 15.1495 5.03982 15.1491 5.24072C15.1495 5.44163 15.0496 5.61634 14.8492 5.76483L7.77817 11.0059Z" fill="#7D7C7C"/>
</svg>
