<svg width="20" height="20" viewBox="0 0 20 20" fill="none" xmlns="http://www.w3.org/2000/svg">
<path d="M17.4582 11.0253C17.2382 11.0253 17.0082 10.9553 16.7882 10.9053C16.3427 10.8071 15.9048 10.6767 15.4782 10.5153C15.0143 10.3465 14.5043 10.3553 14.0465 10.5399C13.5886 10.7245 13.2153 11.0719 12.9982 11.5153L12.7782 11.9653C11.8042 11.4234 10.9092 10.7505 10.1182 9.96526C9.33294 9.17428 8.65999 8.27926 8.11817 7.30526L8.53817 7.02526C8.98153 6.80818 9.32895 6.43479 9.51356 5.97695C9.69817 5.51911 9.70694 5.00917 9.53817 4.54526C9.37939 4.11768 9.2491 3.68006 9.14817 3.23526C9.09817 3.01526 9.05817 2.78526 9.02817 2.55526C8.90673 1.85088 8.53779 1.213 7.98779 0.756498C7.43779 0.299995 6.74286 0.0548676 6.02817 0.0652587H3.02817C2.5972 0.0612122 2.17042 0.150072 1.77688 0.325789C1.38334 0.501506 1.03228 0.759955 0.747598 1.08354C0.462918 1.40713 0.251302 1.78825 0.127155 2.20097C0.00300869 2.61369 -0.0307535 3.04832 0.0281672 3.47526C0.560905 7.66464 2.4742 11.5571 5.46582 14.5379C8.45744 17.5187 12.3569 19.4178 16.5482 19.9353H16.9282C17.6656 19.9363 18.3776 19.6658 18.9282 19.1753C19.2445 18.8923 19.4973 18.5454 19.6696 18.1576C19.842 17.7697 19.9301 17.3497 19.9282 16.9253V13.9253C19.9159 13.2306 19.663 12.5618 19.2125 12.0329C18.762 11.504 18.142 11.1479 17.4582 11.0253ZM17.9582 17.0253C17.958 17.1672 17.9276 17.3076 17.8689 17.4369C17.8103 17.5662 17.7248 17.6815 17.6182 17.7753C17.5064 17.8717 17.3758 17.9438 17.2346 17.9869C17.0934 18.0299 16.9447 18.043 16.7982 18.0253C13.0531 17.5451 9.5744 15.8317 6.91088 13.1555C4.24736 10.4794 2.55058 6.9926 2.08817 3.24526C2.07225 3.09878 2.0862 2.95059 2.12917 2.80965C2.17214 2.66871 2.24324 2.53795 2.33817 2.42526C2.43188 2.31859 2.54723 2.2331 2.67655 2.17448C2.80586 2.11585 2.94618 2.08544 3.08817 2.08526H6.08817C6.32071 2.08008 6.54779 2.15614 6.73031 2.30033C6.91283 2.44452 7.03938 2.64783 7.08817 2.87526C7.12817 3.14859 7.17817 3.41859 7.23817 3.68526C7.35369 4.2124 7.50743 4.73044 7.69817 5.23526L6.29817 5.88526C6.17846 5.94018 6.07079 6.01821 5.98132 6.11485C5.89186 6.2115 5.82237 6.32487 5.77684 6.44845C5.73131 6.57203 5.71064 6.70339 5.71601 6.83498C5.72139 6.96657 5.75271 7.0958 5.80817 7.21526C7.24737 10.298 9.72541 12.7761 12.8082 14.2153C13.0516 14.3153 13.3247 14.3153 13.5682 14.2153C13.6929 14.1707 13.8075 14.1017 13.9053 14.0124C14.0032 13.9232 14.0823 13.8154 14.1382 13.6953L14.7582 12.2953C15.2751 12.4801 15.8028 12.6337 16.3382 12.7553C16.6048 12.8153 16.8748 12.8653 17.1482 12.9053C17.3756 12.954 17.5789 13.0806 17.7231 13.2631C17.8673 13.4456 17.9433 13.6727 17.9382 13.9053L17.9582 17.0253ZM19.8782 0.705259C19.7767 0.460909 19.5825 0.266734 19.3382 0.165259C19.2179 0.114018 19.0888 0.0868387 18.9582 0.0852587H14.9582C14.693 0.0852587 14.4386 0.190615 14.2511 0.378152C14.0635 0.565688 13.9582 0.820042 13.9582 1.08526C13.9582 1.35048 14.0635 1.60483 14.2511 1.79237C14.4386 1.9799 14.693 2.08526 14.9582 2.08526H16.5382L13.2482 5.38526C13.0619 5.57262 12.9574 5.82607 12.9574 6.09026C12.9574 6.35444 13.0619 6.6079 13.2482 6.79526C13.4355 6.98151 13.689 7.08605 13.9532 7.08605C14.2174 7.08605 14.4708 6.98151 14.6582 6.79526L17.9582 3.50526V5.08526C17.9582 5.35047 18.0635 5.60483 18.2511 5.79237C18.4386 5.9799 18.693 6.08526 18.9582 6.08526C19.2234 6.08526 19.4777 5.9799 19.6653 5.79237C19.8528 5.60483 19.9582 5.35047 19.9582 5.08526V1.08526C19.9566 0.954581 19.9294 0.825481 19.8782 0.705259Z" fill="#A22531"/>
</svg>
