<svg width="91" height="91" viewBox="0 0 91 91" fill="none" xmlns="http://www.w3.org/2000/svg">
<circle cx="45.5" cy="45.5" r="45.5" fill="white" fill-opacity="0.89"/>
<g clip-path="url(#clip0_1_1567)">
<path d="M48.1167 33.4502C44.5983 32.7628 40.9584 33.0627 37.6 34.3169C37.437 34.3815 37.2882 34.4775 37.1623 34.5996C37.0363 34.7216 36.9357 34.8673 36.866 35.0282C36.7254 35.3533 36.7196 35.7209 36.85 36.0502C36.9804 36.3796 37.2363 36.6436 37.5614 36.7842C37.8864 36.9249 38.254 36.9306 38.5834 36.8002C41.475 35.7069 44.6116 35.4301 47.65 36.0002C47.8281 36.0471 48.014 36.0566 48.196 36.0281C48.3779 35.9995 48.552 35.9336 48.7072 35.8344C48.8624 35.7353 48.9954 35.6051 49.0977 35.452C49.2001 35.2989 49.2697 35.1262 49.302 34.9449C49.3343 34.7636 49.3288 34.5776 49.2856 34.3985C49.2425 34.2195 49.1627 34.0513 49.0514 33.9046C48.94 33.7579 48.7995 33.6359 48.6386 33.5462C48.4777 33.4565 48.3 33.4012 48.1167 33.3836V33.4502Z" fill="#092A59"/>
<path d="M57.55 46.1168C58.8018 46.1168 59.8167 45.102 59.8167 43.8502C59.8167 42.5983 58.8018 41.5835 57.55 41.5835C56.2981 41.5835 55.2833 42.5983 55.2833 43.8502C55.2833 45.102 56.2981 46.1168 57.55 46.1168Z" fill="#092A59"/>
<path d="M74.4333 47.0498C74.2789 46.8212 74.0701 46.6346 73.8258 46.5066C73.5814 46.3786 73.3091 46.3133 73.0333 46.3164C71.6868 46.1295 70.4514 45.4675 69.55 44.4498C67.8155 42.5538 66.3414 40.4352 65.1667 38.1498L69.9667 30.6498C70.2579 30.2151 70.4364 29.7148 70.4858 29.1939C70.5353 28.6731 70.4542 28.1481 70.25 27.6664C70.0454 27.2282 69.7363 26.847 69.3497 26.5564C68.9632 26.2657 68.5111 26.0746 68.0333 25.9998C64.9809 25.5884 61.8741 26.0207 59.05 27.2498C57.4315 27.9627 55.9085 28.8753 54.5167 29.9664C51.7906 28.7441 48.8878 27.9621 45.9167 27.6498C34.1 26.4998 23.3 34.1664 21.9167 44.3331C21.3776 44.0906 20.8947 43.7387 20.4988 43.2997C20.1029 42.8607 19.8025 42.3443 19.6167 41.7831C19.4978 41.3983 19.4573 40.9936 19.4973 40.5928C19.5374 40.1921 19.6573 39.8034 19.85 39.4498C20.0228 39.1528 20.2697 38.9059 20.5667 38.7331C20.7691 38.6105 20.9454 38.4493 21.0856 38.2586C21.2257 38.0679 21.3269 37.8514 21.3834 37.6216C21.4399 37.3918 21.4506 37.1531 21.4148 36.9191C21.3791 36.6852 21.2976 36.4605 21.175 36.2581C21.0524 36.0556 20.8912 35.8793 20.7005 35.7392C20.5098 35.599 20.2933 35.4978 20.0635 35.4413C19.8337 35.3848 19.595 35.3742 19.361 35.4099C19.1271 35.4457 18.9025 35.5272 18.7 35.6498C17.8932 36.145 17.2274 36.8395 16.7667 37.6664C16.3383 38.4425 16.069 39.2963 15.9746 40.1777C15.8801 41.0591 15.9624 41.9505 16.2167 42.7998C16.5296 43.8288 17.0485 44.7835 17.7419 45.6058C18.4352 46.4281 19.2886 47.1008 20.25 47.5831L21.7833 48.3498C21.9749 52.4069 23.0079 56.3798 24.8167 60.0164L25.1 60.6498C26.5456 63.707 28.3893 66.5596 30.5833 69.1331C30.7395 69.3109 30.9318 69.4534 31.1473 69.5511C31.3628 69.6488 31.5967 69.6995 31.8333 69.6998H39.3667C39.6396 69.6984 39.9081 69.63 40.1484 69.5006C40.3888 69.3712 40.5937 69.1847 40.7451 68.9576C40.8965 68.7305 40.9898 68.4696 41.0169 68.198C41.0439 67.9264 41.0037 67.6523 40.9 67.3998L40.25 65.8998L42.2167 66.1164C44.4335 66.3356 46.6665 66.3356 48.8833 66.1164C49.5 67.1164 50.1667 68.1164 50.9 69.0998C51.0535 69.3098 51.254 69.481 51.4855 69.5997C51.7171 69.7183 51.9732 69.7812 52.2333 69.7831H59.4667C59.7418 69.7829 60.0125 69.7146 60.2548 69.5842C60.497 69.4539 60.7033 69.2657 60.8551 69.0363C61.007 68.8069 61.0996 68.5435 61.1249 68.2696C61.1502 67.9957 61.1073 67.7197 61 67.4664C60.7167 66.7998 60.4333 66.0831 60.2167 65.4664C59.9167 64.5831 59.6833 63.7998 59.5 63.0498C61.3406 62.056 63.0299 60.8045 64.5167 59.3331C66.1773 59.5338 67.856 59.5338 69.5167 59.3331C69.8048 59.2895 70.0764 59.1712 70.3045 58.9899C70.5326 58.8086 70.7092 58.5706 70.8167 58.2998L74.5833 48.6164C74.6893 48.3631 74.7311 48.0876 74.7049 47.8143C74.6787 47.5409 74.5854 47.2783 74.4333 47.0498ZM68.1333 56.1164C66.8249 56.1909 65.5124 56.1295 64.2167 55.9331C62.7412 55.6839 61.3167 55.194 60 54.4831C59.61 54.2897 59.1599 54.2566 58.7459 54.3908C58.3318 54.5249 57.9866 54.8157 57.7842 55.2011C57.5817 55.5864 57.5381 56.0356 57.6625 56.4527C57.7869 56.8698 58.0695 57.2217 58.45 57.4331C59.1465 57.7983 59.8645 58.1211 60.6 58.3998C59.6912 59.1757 58.6821 59.826 57.6 60.3331L55.8333 61.1331C55.8333 61.1331 56.65 64.7831 57.2 66.3998H53.2333C52.8333 65.8331 50.8167 62.4664 50.8167 62.4664L49.7 62.6164C47.3544 62.9546 44.9776 63.0218 42.6167 62.8164C41.5167 62.7164 39.6833 62.4831 38.25 62.2331L35.6667 61.7831C35.6667 61.7831 36.7167 65.8331 36.9167 66.3498H32.6167C30.8602 64.199 29.3715 61.8429 28.1833 59.3331L27.8833 58.6831C25.7178 54.5147 24.8034 49.8092 25.25 45.1331C26.15 36.4831 35.45 29.9498 45.5667 30.8998C48.5096 31.2297 51.3737 32.0641 54.0333 33.3664L55.0667 33.8498L55.9 33.0664C57.1978 31.9067 58.6646 30.9513 60.25 30.2331C62.3476 29.3233 64.6389 28.951 66.9167 29.1498L61.2833 37.9664L61.7 38.7998C63.1556 41.7316 65.0123 44.4466 67.2167 46.8664C68.2405 47.8671 69.4528 48.6545 70.7833 49.1831L68.1333 56.1164Z" fill="#092A59"/>
</g>
<defs>
<clipPath id="clip0_1_1567">
<rect width="60" height="60" fill="white" transform="translate(15.25 16)"/>
</clipPath>
</defs>
</svg>
