<svg width="91" height="91" viewBox="0 0 91 91" fill="none" xmlns="http://www.w3.org/2000/svg">
<circle cx="45.5" cy="45.5" r="45.5" fill="white" fill-opacity="0.89"/>
<path d="M58.25 22.5H23.25C21.9239 22.5 20.6521 23.0268 19.7145 23.9645C18.7768 24.9021 18.25 26.1739 18.25 27.5V50H23.25V27.5H58.25V22.5Z" fill="#092A59"/>
<path d="M68.25 32.5H33.25C31.9239 32.5 30.6521 33.0268 29.7145 33.9645C28.7768 34.9021 28.25 36.1739 28.25 37.5V62.5C28.25 63.8261 28.7768 65.0979 29.7145 66.0355C30.6521 66.9732 31.9239 67.5 33.25 67.5H47.075V71.325H43.25V75H58.25V71.3H54.45V67.5H68.25C69.5761 67.5 70.8479 66.9732 71.7855 66.0355C72.7232 65.0979 73.25 63.8261 73.25 62.5V37.5C73.25 36.1739 72.7232 34.9021 71.7855 33.9645C70.8479 33.0268 69.5761 32.5 68.25 32.5ZM68.25 62.5H33.25V37.5H68.25V62.5Z" fill="#092A59"/>
</svg>
