<svg width="21" height="20" viewBox="0 0 21 20" fill="none" xmlns="http://www.w3.org/2000/svg">
<path d="M15.5 1.6665H7.99998C7.08331 1.6665 6.33331 2.4165 6.33331 3.33317V4.1665C6.33331 4.38752 6.42111 4.59948 6.57739 4.75576C6.73367 4.91204 6.94563 4.99984 7.16665 4.99984C7.38766 4.99984 7.59962 4.91204 7.7559 4.75576C7.91218 4.59948 7.99998 4.38752 7.99998 4.1665V3.33317H15.5V16.6665H7.99998V15.8332C7.99998 15.6122 7.91218 15.4002 7.7559 15.2439C7.59962 15.0876 7.38766 14.9998 7.16665 14.9998C6.94563 14.9998 6.73367 15.0876 6.57739 15.2439C6.42111 15.4002 6.33331 15.6122 6.33331 15.8332V16.6665C6.33331 17.5832 7.08331 18.3332 7.99998 18.3332H15.5C16.4166 18.3332 17.1666 17.5832 17.1666 16.6665V3.33317C17.1666 2.4165 16.4166 1.6665 15.5 1.6665Z" fill="#A22531"/>
<path d="M10.6708 13.579C10.3458 13.904 9.82083 13.904 9.49583 13.579C9.34006 13.423 9.25249 13.2117 9.25233 12.9913C9.25218 12.7708 9.33944 12.5593 9.495 12.4032L11.0583 10.8332H3.83333C3.61232 10.8332 3.40036 10.7454 3.24408 10.5891C3.0878 10.4328 3 10.2208 3 9.99983C3 9.77882 3.0878 9.56685 3.24408 9.41057C3.40036 9.25429 3.61232 9.1665 3.83333 9.1665H11.0583L9.495 7.5965C9.35183 7.43809 9.27499 7.23073 9.28038 7.01727C9.28577 6.80382 9.37297 6.6006 9.52395 6.44961C9.67493 6.29863 9.87816 6.21143 10.0916 6.20605C10.3051 6.20066 10.5124 6.27749 10.6708 6.42066L13.6608 9.41066C13.8171 9.56694 13.9048 9.77886 13.9048 9.99983C13.9048 10.2208 13.8171 10.4327 13.6608 10.589L10.6708 13.579Z" fill="#A22531"/>
</svg>
