<svg width="21" height="20" viewBox="0 0 21 20" fill="none" xmlns="http://www.w3.org/2000/svg">
<path d="M15.5 1.66602H7.99998C7.08331 1.66602 6.33331 2.41602 6.33331 3.33268V4.16602C6.33331 4.38703 6.42111 4.59899 6.57739 4.75527C6.73367 4.91155 6.94563 4.99935 7.16665 4.99935C7.38766 4.99935 7.59962 4.91155 7.7559 4.75527C7.91218 4.59899 7.99998 4.38703 7.99998 4.16602V3.33268H15.5V16.666H7.99998V15.8327C7.99998 15.6117 7.91218 15.3997 7.7559 15.2434C7.59962 15.0871 7.38766 14.9993 7.16665 14.9993C6.94563 14.9993 6.73367 15.0871 6.57739 15.2434C6.42111 15.3997 6.33331 15.6117 6.33331 15.8327V16.666C6.33331 17.5827 7.08331 18.3327 7.99998 18.3327H15.5C16.4166 18.3327 17.1666 17.5827 17.1666 16.666V3.33268C17.1666 2.41602 16.4166 1.66602 15.5 1.66602Z" fill="white"/>
<path d="M10.6708 13.5785C10.3458 13.9035 9.82083 13.9035 9.49583 13.5785C9.34006 13.4226 9.25249 13.2112 9.25233 12.9908C9.25218 12.7703 9.33944 12.5588 9.495 12.4027L11.0583 10.8327H3.83333C3.61232 10.8327 3.40036 10.7449 3.24408 10.5886C3.0878 10.4323 3 10.2204 3 9.99934C3 9.77833 3.0878 9.56637 3.24408 9.41009C3.40036 9.25381 3.61232 9.16601 3.83333 9.16601H11.0583L9.495 7.59601C9.35183 7.4376 9.27499 7.23024 9.28038 7.01678C9.28577 6.80333 9.37297 6.60011 9.52395 6.44913C9.67493 6.29814 9.87816 6.21095 10.0916 6.20556C10.3051 6.20017 10.5124 6.277 10.6708 6.42017L13.6608 9.41018C13.8171 9.56645 13.9048 9.77837 13.9048 9.99934C13.9048 10.2203 13.8171 10.4322 13.6608 10.5885L10.6708 13.5785Z" fill="white"/>
</svg>
