<svg width="20" height="20" viewBox="0 0 20 20" fill="none" xmlns="http://www.w3.org/2000/svg">
<path d="M15 1.66602H7.49998C6.58331 1.66602 5.83331 2.41602 5.83331 3.33268V4.16602C5.83331 4.38703 5.92111 4.59899 6.07739 4.75527C6.23367 4.91155 6.44563 4.99935 6.66665 4.99935C6.88766 4.99935 7.09962 4.91155 7.2559 4.75527C7.41218 4.59899 7.49998 4.38703 7.49998 4.16602V3.33268H15V16.666H7.49998V15.8327C7.49998 15.6117 7.41218 15.3997 7.2559 15.2434C7.09962 15.0871 6.88766 14.9993 6.66665 14.9993C6.44563 14.9993 6.23367 15.0871 6.07739 15.2434C5.92111 15.3997 5.83331 15.6117 5.83331 15.8327V16.666C5.83331 17.5827 6.58331 18.3327 7.49998 18.3327H15C15.9166 18.3327 16.6666 17.5827 16.6666 16.666V3.33268C16.6666 2.41602 15.9166 1.66602 15 1.66602Z" fill="white"/>
<path d="M10.1708 13.5785C9.84583 13.9035 9.32083 13.9035 8.99583 13.5785C8.84006 13.4226 8.75249 13.2112 8.75233 12.9908C8.75218 12.7703 8.83944 12.5588 8.995 12.4027L10.5583 10.8327H3.33333C3.11232 10.8327 2.90036 10.7449 2.74408 10.5886C2.5878 10.4323 2.5 10.2204 2.5 9.99934C2.5 9.77833 2.5878 9.56637 2.74408 9.41009C2.90036 9.25381 3.11232 9.16601 3.33333 9.16601H10.5583L8.995 7.59601C8.85183 7.4376 8.77499 7.23024 8.78038 7.01678C8.78577 6.80333 8.87297 6.60011 9.02395 6.44913C9.17493 6.29814 9.37816 6.21095 9.59161 6.20556C9.80506 6.20017 10.0124 6.277 10.1708 6.42017L13.1608 9.41018C13.3171 9.56645 13.4048 9.77837 13.4048 9.99934C13.4048 10.2203 13.3171 10.4322 13.1608 10.5885L10.1708 13.5785Z" fill="white"/>
</svg>
