<svg width="20" height="20" viewBox="0 0 20 20" fill="none" xmlns="http://www.w3.org/2000/svg">
<path d="M15 1.6665H7.49998C6.58331 1.6665 5.83331 2.4165 5.83331 3.33317V4.1665C5.83331 4.38752 5.92111 4.59948 6.07739 4.75576C6.23367 4.91204 6.44563 4.99984 6.66665 4.99984C6.88766 4.99984 7.09962 4.91204 7.2559 4.75576C7.41218 4.59948 7.49998 4.38752 7.49998 4.1665V3.33317H15V16.6665H7.49998V15.8332C7.49998 15.6122 7.41218 15.4002 7.2559 15.2439C7.09962 15.0876 6.88766 14.9998 6.66665 14.9998C6.44563 14.9998 6.23367 15.0876 6.07739 15.2439C5.92111 15.4002 5.83331 15.6122 5.83331 15.8332V16.6665C5.83331 17.5832 6.58331 18.3332 7.49998 18.3332H15C15.9166 18.3332 16.6666 17.5832 16.6666 16.6665V3.33317C16.6666 2.4165 15.9166 1.6665 15 1.6665Z" fill="white"/>
<path d="M10.1708 13.579C9.84583 13.904 9.32083 13.904 8.99583 13.579C8.84006 13.423 8.75249 13.2117 8.75233 12.9913C8.75218 12.7708 8.83944 12.5593 8.995 12.4032L10.5583 10.8332H3.33333C3.11232 10.8332 2.90036 10.7454 2.74408 10.5891C2.5878 10.4328 2.5 10.2208 2.5 9.99983C2.5 9.77882 2.5878 9.56685 2.74408 9.41057C2.90036 9.25429 3.11232 9.1665 3.33333 9.1665H10.5583L8.995 7.5965C8.85183 7.43809 8.77499 7.23073 8.78038 7.01727C8.78577 6.80382 8.87297 6.6006 9.02395 6.44961C9.17493 6.29863 9.37816 6.21143 9.59161 6.20605C9.80506 6.20066 10.0124 6.27749 10.1708 6.42066L13.1608 9.41066C13.3171 9.56694 13.4048 9.77886 13.4048 9.99983C13.4048 10.2208 13.3171 10.4327 13.1608 10.589L10.1708 13.579Z" fill="white"/>
</svg>
