<svg width="21" height="20" viewBox="0 0 21 20" fill="none" xmlns="http://www.w3.org/2000/svg">
<path d="M17.125 17.5C15.3333 17.5 13.5869 17.1006 11.8858 16.3017C10.1847 15.5028 8.67778 14.4472 7.365 13.135C6.05222 11.8228 4.99667 10.3158 4.19833 8.61417C3.4 6.9125 3.00056 5.16611 3 3.375C3 3.125 3.08333 2.91667 3.25 2.75C3.41667 2.58333 3.625 2.5 3.875 2.5H7.25C7.44444 2.5 7.61806 2.5625 7.77083 2.6875C7.92361 2.8125 8.01389 2.97222 8.04167 3.16667L8.58333 6.08333C8.61111 6.27778 8.6075 6.455 8.5725 6.615C8.5375 6.775 8.45778 6.91722 8.33333 7.04167L6.3125 9.08333C6.89583 10.0833 7.62861 11.0208 8.51083 11.8958C9.39306 12.7708 10.3617 13.5278 11.4167 14.1667L13.375 12.2083C13.5 12.0833 13.6633 11.9894 13.865 11.9267C14.0667 11.8639 14.2644 11.8467 14.4583 11.875L17.3333 12.4583C17.5278 12.5 17.6875 12.5939 17.8125 12.74C17.9375 12.8861 18 13.0561 18 13.25V16.625C18 16.875 17.9167 17.0833 17.75 17.25C17.5833 17.4167 17.375 17.5 17.125 17.5ZM5.52083 7.5L6.89583 6.125L6.54167 4.16667H4.6875C4.75694 4.73611 4.85417 5.29861 4.97917 5.85417C5.10417 6.40972 5.28472 6.95833 5.52083 7.5ZM16.3333 15.7917V13.9583L14.375 13.5625L12.9792 14.9583C13.5208 15.1944 14.0728 15.3819 14.635 15.5208C15.1972 15.6597 15.7633 15.75 16.3333 15.7917Z" fill="#A22531"/>
</svg>
