<svg width="24" height="28" viewBox="0 0 24 28" fill="none" xmlns="http://www.w3.org/2000/svg">
<path d="M10.32 20.4145L18.78 10.7549L17.1 8.83664L10.32 16.578L6.9 12.6731L5.22 14.5913L10.32 20.4145ZM12 27.8133C10.34 27.8133 8.78 27.4534 7.32 26.7337C5.86 26.0148 4.59 25.0388 3.51 23.8056C2.43 22.5725 1.5752 21.1224 0.9456 19.4554C0.3152 17.7883 0 16.0071 0 14.1117C0 12.2164 0.3152 10.4352 0.9456 8.76813C1.5752 7.1011 2.43 5.65102 3.51 4.41787C4.59 3.18473 5.86 2.20826 7.32 1.48847C8.78 0.769595 10.34 0.410156 12 0.410156C13.66 0.410156 15.22 0.769595 16.68 1.48847C18.14 2.20826 19.41 3.18473 20.49 4.41787C21.57 5.65102 22.4248 7.1011 23.0544 8.76813C23.6848 10.4352 24 12.2164 24 14.1117C24 16.0071 23.6848 17.7883 23.0544 19.4554C22.4248 21.1224 21.57 22.5725 20.49 23.8056C19.41 25.0388 18.14 26.0148 16.68 26.7337C15.22 27.4534 13.66 27.8133 12 27.8133ZM12 25.073C14.68 25.073 16.95 24.0112 18.81 21.8874C20.67 19.7637 21.6 17.1718 21.6 14.1117C21.6 11.0517 20.67 8.45984 18.81 6.3361C16.95 4.21235 14.68 3.15048 12 3.15048C9.32 3.15048 7.05 4.21235 5.19 6.3361C3.33 8.45984 2.4 11.0517 2.4 14.1117C2.4 17.1718 3.33 19.7637 5.19 21.8874C7.05 24.0112 9.32 25.073 12 25.073Z" fill="white"/>
</svg>
