<svg width="18" height="22" viewBox="0 0 18 22" fill="none" xmlns="http://www.w3.org/2000/svg">
<path d="M9 21.8642L2.636 15.5002C1.37734 14.2415 0.520187 12.6378 0.172928 10.892C-0.17433 9.14618 0.00390685 7.33658 0.685099 5.69205C1.36629 4.04753 2.51984 2.64192 3.99988 1.653C5.47992 0.664068 7.21998 0.13623 9 0.13623C10.78 0.13623 12.5201 0.664068 14.0001 1.653C15.4802 2.64192 16.6337 4.04753 17.3149 5.69205C17.9961 7.33658 18.1743 9.14618 17.8271 10.892C17.4798 12.6378 16.6227 14.2415 15.364 15.5002L9 21.8642ZM13.95 14.0862C14.9289 13.1072 15.5955 11.8599 15.8656 10.502C16.1356 9.14418 15.9969 7.73675 15.4671 6.45771C14.9373 5.17867 14.04 4.08546 12.8889 3.31632C11.7378 2.54718 10.3844 2.13666 9 2.13666C7.61557 2.13666 6.26222 2.54718 5.11109 3.31632C3.95996 4.08546 3.06275 5.17867 2.53292 6.45771C2.00308 7.73675 1.86442 9.14418 2.13445 10.502C2.40449 11.8599 3.07111 13.1072 4.05 14.0862L9 19.0362L13.95 14.0862ZM9 11.1362C8.46957 11.1362 7.96086 10.9254 7.58579 10.5504C7.21072 10.1753 7 9.66658 7 9.13615C7 8.60572 7.21072 8.09701 7.58579 7.72194C7.96086 7.34687 8.46957 7.13615 9 7.13615C9.53044 7.13615 10.0391 7.34687 10.4142 7.72194C10.7893 8.09701 11 8.60572 11 9.13615C11 9.66658 10.7893 10.1753 10.4142 10.5504C10.0391 10.9254 9.53044 11.1362 9 11.1362Z" fill="#A22531"/>
</svg>
