<svg width="25" height="26" viewBox="0 0 25 26" fill="none" xmlns="http://www.w3.org/2000/svg">
<path d="M10.75 18.4861L19.5625 9.67605L17.8125 7.92654L10.75 14.9871L7.1875 11.4256L5.4375 13.1751L10.75 18.4861ZM12.5 25.2342C10.7708 25.2342 9.14583 24.9059 7.625 24.2494C6.10417 23.5938 4.78125 22.7036 3.65625 21.5789C2.53125 20.4543 1.64083 19.1317 0.985 17.6113C0.328333 16.0909 0 14.4664 0 12.7377C0 11.009 0.328333 9.38447 0.985 7.86406C1.64083 6.34366 2.53125 5.02111 3.65625 3.89643C4.78125 2.77175 6.10417 1.88117 7.625 1.22468C9.14583 0.569035 10.7708 0.241211 12.5 0.241211C14.2292 0.241211 15.8542 0.569035 17.375 1.22468C18.8958 1.88117 20.2188 2.77175 21.3438 3.89643C22.4688 5.02111 23.3592 6.34366 24.015 7.86406C24.6717 9.38447 25 11.009 25 12.7377C25 14.4664 24.6717 16.0909 24.015 17.6113C23.3592 19.1317 22.4688 20.4543 21.3438 21.5789C20.2188 22.7036 18.8958 23.5938 17.375 24.2494C15.8542 24.9059 14.2292 25.2342 12.5 25.2342ZM12.5 22.7349C15.2917 22.7349 17.6562 21.7664 19.5938 19.8294C21.5312 17.8925 22.5 15.5286 22.5 12.7377C22.5 9.94681 21.5312 7.58289 19.5938 5.64594C17.6562 3.70898 15.2917 2.74051 12.5 2.74051C9.70833 2.74051 7.34375 3.70898 5.40625 5.64594C3.46875 7.58289 2.5 9.94681 2.5 12.7377C2.5 15.5286 3.46875 17.8925 5.40625 19.8294C7.34375 21.7664 9.70833 22.7349 12.5 22.7349Z" fill="white"/>
</svg>
