<svg width="209" height="232" viewBox="0 0 209 232" fill="none" xmlns="http://www.w3.org/2000/svg">
<path d="M51.2411 0.615234C51.8684 31.1682 58.5288 61.7124 66.8677 86.7267C75.6275 113.002 86.4809 133.428 92.6554 140.552L93.8286 141.905V155.623H114.293V141.905L115.466 140.552C121.641 133.428 132.494 113.002 141.254 86.7267C149.593 61.7124 156.253 31.1682 156.881 0.615234H51.2411ZM28.7278 35.6691C20.7332 38.7744 14.3598 45.0178 11.989 51.2556C10.6477 54.7843 10.4408 58.1539 11.5494 61.5872C11.6762 61.9804 11.8253 62.3776 11.9925 62.777C13.2238 61.8943 14.486 61.0703 15.7758 60.3071L18.5684 58.6569L20.6242 61.3906C22.9096 64.4292 24.8995 67.7398 26.5954 71.2069C27.7401 69.6363 28.9119 67.1706 29.7319 64.0021C31.7298 56.2856 31.6546 45.0368 28.7278 35.6691ZM179.394 35.6691C176.467 45.0363 176.392 56.2856 178.39 64.0021C179.21 67.1706 180.382 69.6363 181.526 71.2069C183.223 67.7393 185.212 64.4292 187.498 61.3906L189.553 58.6569L192.346 60.3071C193.636 61.0703 194.898 61.8943 196.129 62.777C196.296 62.3771 196.445 61.9804 196.572 61.5872C197.681 58.1539 197.474 54.7843 196.133 51.2556C193.762 45.0178 187.389 38.7744 179.394 35.6691ZM16.5775 70.4381C7.56816 76.8468 1.39762 86.5933 0.229795 95.0612C-0.413953 99.732 0.269835 103.902 2.59791 107.659C3.33642 108.852 4.26312 110.017 5.40246 111.129C6.9164 108.412 8.61845 105.842 10.4919 103.442L12.5918 100.752L15.3576 102.462C18.8767 104.636 22.1475 107.299 25.1184 110.29C25.5513 108.425 25.8387 106.239 25.9072 103.815C26.1901 93.8376 22.8989 80.4422 16.578 70.4381H16.5775ZM191.544 70.4381C185.223 80.4417 181.932 93.8381 182.215 103.815C182.283 106.239 182.571 108.425 183.003 110.29C185.974 107.299 189.245 104.636 192.764 102.462L195.53 100.752L197.63 103.442C199.503 105.842 201.205 108.412 202.719 111.129C203.858 110.017 204.785 108.852 205.524 107.659C207.852 103.902 208.536 99.732 207.892 95.0612C206.724 86.5933 200.554 76.8468 191.544 70.4381ZM14.3722 112.577C7.96856 122.229 5.25387 133.833 6.80741 142.217C7.66515 146.844 9.60929 150.469 12.9664 153.036C15.1659 154.717 18.0737 155.961 21.8374 156.446C22.6776 153.3 23.734 150.236 24.9965 147.283L26.3868 144.03L29.4565 144.818C31.2783 145.286 33.0747 145.868 34.8369 146.552C34.671 144.582 34.2546 142.35 33.5356 139.971C30.6812 130.529 23.4149 119.346 14.3722 112.577ZM193.75 112.577C184.707 119.346 177.44 130.529 174.586 139.971C173.867 142.35 173.451 144.582 173.285 146.552C175.051 145.865 176.846 145.287 178.665 144.818L181.735 144.03L183.125 147.283C184.388 150.236 185.444 153.3 186.284 156.446C190.048 155.962 192.956 154.717 195.155 153.036C198.513 150.469 200.457 146.843 201.314 142.217C202.868 133.833 200.153 122.229 193.75 112.577ZM30.8774 154.867C26.7467 166.744 26.8615 179.427 30.562 187.48C32.5951 191.904 35.5029 194.978 39.5789 196.494C41.6192 197.253 44.0086 197.618 46.7794 197.42C45.8296 191.694 45.5466 185.63 45.9982 179.487L46.266 175.856L49.3891 175.31C51.3733 174.965 53.3718 174.74 55.3763 174.636C55.6228 174.623 55.8688 174.616 56.1148 174.606C50.5898 166.509 41.0408 158.474 30.8774 154.867ZM177.244 154.867C167.081 158.474 157.532 166.508 152.007 174.606C152.253 174.616 152.499 174.623 152.745 174.636C154.747 174.742 156.747 174.963 158.733 175.31L161.856 175.856L162.123 179.487C162.575 185.629 162.292 191.694 161.342 197.42C164.113 197.618 166.503 197.253 168.543 196.494C172.619 194.978 175.527 191.904 177.56 187.48C181.26 179.427 181.375 166.744 177.244 154.867ZM79.0268 164.862C78.1624 168.651 76.3375 172.07 73.9703 174.8C73.4773 175.365 72.9599 175.9 72.4203 176.404C79.0064 178.096 85.1702 180.866 90.3954 184.34C91.456 181.588 92.7871 179.03 94.5809 176.88C96.925 174.071 100.284 172.048 104.061 172.048C107.838 172.048 111.197 174.071 113.541 176.88C115.335 179.03 116.666 181.589 117.726 184.339C122.983 180.845 129.189 178.062 135.82 176.373C135.239 175.823 134.684 175.238 134.156 174.621C131.831 171.884 130.032 168.538 129.147 164.862H79.0268ZM104.061 181.287C102.533 181.287 101.554 181.843 100.351 183.286C99.1476 184.728 97.9504 187.146 97.0019 190.111C95.1045 196.043 94.18 203.97 93.8183 209.844C93.3423 217.566 95.153 226.971 99.2837 230.406C101.389 232.157 106.732 232.157 108.838 230.406C112.969 226.971 114.78 217.566 114.303 209.844C113.942 203.97 113.017 196.043 111.12 190.111C110.171 187.146 108.974 184.728 107.771 183.286C106.568 181.844 105.589 181.287 104.061 181.287ZM58.006 183.842C57.2435 183.838 56.4828 183.853 55.7251 183.888C55.1001 183.917 54.4928 184.033 53.8726 184.089C53.6867 198.366 58.2396 211.571 64.9921 218.295C68.6686 221.957 72.8158 223.824 77.6045 223.508C80.2329 223.335 83.1184 222.466 86.2237 220.675C85.6587 216.741 85.6111 212.76 85.8309 209.189C86.1121 204.626 86.6548 198.943 87.8235 193.34C80.1893 187.855 68.9489 183.899 58.006 183.842V183.842ZM150.116 183.842C139.173 183.899 127.933 187.856 120.298 193.34C121.467 198.943 122.01 204.626 122.291 209.189C122.511 212.76 122.463 216.741 121.898 220.676C125.003 222.467 127.889 223.335 130.518 223.508C135.306 223.824 139.453 221.957 143.13 218.296C149.882 211.571 154.435 198.366 154.249 184.089C153.629 184.033 153.021 183.917 152.397 183.888C151.637 183.854 150.876 183.838 150.116 183.842Z" fill="url(#paint0_diamond_1_2123)"/>
<defs>
<radialGradient id="paint0_diamond_1_2123" cx="0" cy="0" r="1" gradientUnits="userSpaceOnUse" gradientTransform="translate(104.061 25.2299) rotate(90) scale(206.49 49.2054)">
<stop stop-color="#BA7905"/>
<stop offset="0.549481" stop-color="#F0AF3E" stop-opacity="0.75"/>
<stop offset="1" stop-color="#DE971B"/>
</radialGradient>
</defs>
</svg>
