<svg width="20" height="17" viewBox="0 0 20 17" fill="none" xmlns="http://www.w3.org/2000/svg">
<path d="M6.28917 17C13.8367 17 17.9642 10.7475 17.9642 5.32503C17.9642 5.14753 17.9642 4.97087 17.9525 4.79503C18.7558 4.21391 19.4491 3.49434 20 2.67003C19.2512 3.00225 18.4568 3.22023 17.6433 3.3167C18.4997 2.80361 19.1406 1.99693 19.4467 1.0467C18.6414 1.52457 17.7604 1.86136 16.8417 2.04253C16.223 1.38465 15.4047 0.949019 14.5134 0.803042C13.6222 0.657065 12.7077 0.808883 11.9114 1.235C11.1152 1.66112 10.4816 2.33779 10.1086 3.1603C9.73566 3.98281 9.64418 4.9053 9.84833 5.78503C8.217 5.70327 6.6211 5.27938 5.1642 4.54089C3.70731 3.80239 2.42199 2.76579 1.39167 1.49837C0.867076 2.40175 0.706484 3.47111 0.942583 4.48873C1.17868 5.50636 1.79372 6.39575 2.6625 6.97587C2.00941 6.95637 1.3706 6.78001 0.8 6.4617V6.5142C0.800258 7.46153 1.12816 8.37962 1.72811 9.11277C2.32806 9.84592 3.16311 10.349 4.09167 10.5367C3.48762 10.7012 2.85391 10.7252 2.23917 10.6067C2.50133 11.422 3.01176 12.1351 3.69907 12.6461C4.38638 13.1571 5.2162 13.4405 6.0725 13.4567C5.22167 14.1252 4.24742 14.6194 3.20545 14.9111C2.16349 15.2028 1.07424 15.2863 0 15.1567C1.87629 16.3611 4.05956 17.0002 6.28917 16.9975" fill="#092A59"/>
</svg>
