<svg width="25" height="26" viewBox="0 0 25 26" fill="none" xmlns="http://www.w3.org/2000/svg">
<path d="M10.75 18.5163L19.5625 9.70632L17.8125 7.95682L10.75 15.0173L7.1875 11.4558L5.4375 13.2053L10.75 18.5163ZM12.5 25.2644C10.7708 25.2644 9.14583 24.9362 7.625 24.2797C6.10417 23.6241 4.78125 22.7339 3.65625 21.6092C2.53125 20.4845 1.64083 19.162 0.985 17.6416C0.328333 16.1212 0 14.4966 0 12.768C0 11.0393 0.328333 9.41474 0.985 7.89434C1.64083 6.37393 2.53125 5.05139 3.65625 3.9267C4.78125 2.80202 6.10417 1.91144 7.625 1.25496C9.14583 0.599309 10.7708 0.271484 12.5 0.271484C14.2292 0.271484 15.8542 0.599309 17.375 1.25496C18.8958 1.91144 20.2188 2.80202 21.3438 3.9267C22.4688 5.05139 23.3592 6.37393 24.015 7.89434C24.6717 9.41474 25 11.0393 25 12.768C25 14.4966 24.6717 16.1212 24.015 17.6416C23.3592 19.162 22.4688 20.4845 21.3438 21.6092C20.2188 22.7339 18.8958 23.6241 17.375 24.2797C15.8542 24.9362 14.2292 25.2644 12.5 25.2644ZM12.5 22.7651C15.2917 22.7651 17.6562 21.7967 19.5938 19.8597C21.5312 17.9228 22.5 15.5588 22.5 12.768C22.5 9.97708 21.5312 7.61316 19.5938 5.67621C17.6562 3.73926 15.2917 2.77078 12.5 2.77078C9.70833 2.77078 7.34375 3.73926 5.40625 5.67621C3.46875 7.61316 2.5 9.97708 2.5 12.768C2.5 15.5588 3.46875 17.9228 5.40625 19.8597C7.34375 21.7967 9.70833 22.7651 12.5 22.7651Z" fill="white"/>
</svg>
