<svg width="20" height="18" viewBox="0 0 20 18" fill="none" xmlns="http://www.w3.org/2000/svg">
<path d="M6.28917 17.125C13.8367 17.125 17.9642 10.8725 17.9642 5.45003C17.9642 5.27253 17.9642 5.09587 17.9525 4.92003C18.7558 4.33891 19.4491 3.61934 20 2.79503C19.2512 3.12725 18.4568 3.34523 17.6433 3.4417C18.4997 2.92861 19.1406 2.12193 19.4467 1.1717C18.6414 1.64957 17.7604 1.98636 16.8417 2.16753C16.223 1.50965 15.4047 1.07402 14.5134 0.928042C13.6222 0.782065 12.7077 0.933883 11.9114 1.36C11.1152 1.78612 10.4816 2.46279 10.1086 3.2853C9.73566 4.10781 9.64418 5.0303 9.84833 5.91003C8.217 5.82827 6.6211 5.40438 5.1642 4.66589C3.70731 3.92739 2.42199 2.89079 1.39167 1.62337C0.867076 2.52675 0.706484 3.59611 0.942583 4.61373C1.17868 5.63136 1.79372 6.52075 2.6625 7.10087C2.00941 7.08137 1.3706 6.90501 0.8 6.5867V6.6392C0.800258 7.58653 1.12816 8.50462 1.72811 9.23777C2.32806 9.97092 3.16311 10.474 4.09167 10.6617C3.48762 10.8262 2.85391 10.8502 2.23917 10.7317C2.50133 11.547 3.01176 12.2601 3.69907 12.7711C4.38638 13.2821 5.2162 13.5655 6.0725 13.5817C5.22167 14.2502 4.24742 14.7444 3.20545 15.0361C2.16349 15.3278 1.07424 15.4113 0 15.2817C1.87629 16.4861 4.05956 17.1252 6.28917 17.1225" fill="#092A59"/>
</svg>
