<svg width="24" height="28" viewBox="0 0 24 28" fill="none" xmlns="http://www.w3.org/2000/svg">
<path d="M10.32 20.0707L18.78 10.4111L17.1 8.49289L10.32 16.2343L6.9 12.3293L5.22 14.2476L10.32 20.0707ZM12 27.4696C10.34 27.4696 8.78 27.1097 7.32 26.3899C5.86 25.671 4.59 24.695 3.51 23.4619C2.43 22.2287 1.5752 20.7786 0.9456 19.1116C0.3152 17.4446 0 15.6634 0 13.768C0 11.8726 0.3152 10.0914 0.9456 8.42438C1.5752 6.75735 2.43 5.30727 3.51 4.07412C4.59 2.84098 5.86 1.86451 7.32 1.14472C8.78 0.425845 10.34 0.0664062 12 0.0664062C13.66 0.0664062 15.22 0.425845 16.68 1.14472C18.14 1.86451 19.41 2.84098 20.49 4.07412C21.57 5.30727 22.4248 6.75735 23.0544 8.42438C23.6848 10.0914 24 11.8726 24 13.768C24 15.6634 23.6848 17.4446 23.0544 19.1116C22.4248 20.7786 21.57 22.2287 20.49 23.4619C19.41 24.695 18.14 25.671 16.68 26.3899C15.22 27.1097 13.66 27.4696 12 27.4696ZM12 24.7293C14.68 24.7293 16.95 23.6674 18.81 21.5437C20.67 19.4199 21.6 16.828 21.6 13.768C21.6 10.708 20.67 8.11609 18.81 5.99235C16.95 3.8686 14.68 2.80673 12 2.80673C9.32 2.80673 7.05 3.8686 5.19 5.99235C3.33 8.11609 2.4 10.708 2.4 13.768C2.4 16.828 3.33 19.4199 5.19 21.5437C7.05 23.6674 9.32 24.7293 12 24.7293Z" fill="white"/>
</svg>
