<svg width="150" height="41" viewBox="0 0 150 41" fill="none" xmlns="http://www.w3.org/2000/svg">
<path d="M99.6164 0.5V29.6368C103.21 29.804 106.795 30.0061 110.369 30.2446V36.4221C104.7 36.0441 99.0251 35.7572 93.3466 35.5617V0.5H99.6164ZM149.439 0.503489L141.275 19.4314L149.437 40.4948L149.428 40.4986C147.048 40.16 144.666 39.8379 142.282 39.5323L137.698 27.7104L133.071 38.4349C130.876 38.1924 128.68 37.9636 126.482 37.7487L134.441 19.3046L127.152 0.50378H133.934L138.015 11.0253L142.553 0.503489H149.439ZM71.8285 35.2555V0.503199H89.3304V6.73632H78.0982V14.8141H86.5968V20.9917H78.0982V35.2544L71.8285 35.2555ZM48.4171 6.73661V0.502908H67.8091V6.73632H61.2477V35.4245C59.1549 35.4797 57.0645 35.5443 54.9785 35.6231V6.73661H48.4171ZM26.9832 37.4189V0.504071H44.3979V6.7369H33.2521V15.1799C35.8127 15.1471 39.4536 15.1101 41.7187 15.1154V21.2935C38.8833 21.2586 35.6827 21.3325 33.2521 21.3566V30.7092C36.9647 30.4167 40.6801 30.1627 44.3979 29.9474V36.1255C38.5863 36.4608 32.7806 36.8922 26.9832 37.4195V37.4189ZM14.6842 23.1382L14.6839 0.502908H20.9537V38.0016C18.6618 38.2372 16.3739 38.4881 14.0904 38.753L6.83001 17.8955V39.6463C4.73852 39.9185 2.64866 40.203 0.560547 40.5V0.503489H6.51888L14.6842 23.1382ZM115.542 36.7946V0.503489H121.812V37.3125C119.724 37.1264 117.635 36.9545 115.542 36.7946Z" fill="#DB202C"/>
</svg>
